<?xml version="1.0" encoding="UTF-8" standalone="no"?>
<!-- Created with Inkscape (http://www.inkscape.org/) -->

<svg
   version="1.1"
   id="svg2"
   width="666.66669"
   height="496.07999"
   viewBox="0 0 666.66669 496.07999"
   sodipodi:docname="6310506.eps"
   xmlns:inkscape="http://www.inkscape.org/namespaces/inkscape"
   xmlns:sodipodi="http://sodipodi.sourceforge.net/DTD/sodipodi-0.dtd"
   xmlns="http://www.w3.org/2000/svg"
   xmlns:svg="http://www.w3.org/2000/svg">
  <defs
     id="defs6">
    <clipPath
       clipPathUnits="userSpaceOnUse"
       id="clipPath252">
      <path
         d="m 1736.84,1795.88 c -101.05,0 -286.2,0 -335.37,0 -0.08,1.81 -0.12,3.86 -0.12,6.16 -0.01,34.16 8.35,121.02 8.36,230.71 0,92.5 -5.94,201.24 -27.85,308.31 0,0 57.48,11.54 112.26,14.17 23.96,1.16 53.93,2.1 82.28,2.1 22.34,0 43.67,-0.59 60.28,-2.1 49.67,-4.53 96.44,-17.4 96.44,-17.4 0,0 23.1,-26.09 29.29,-142.57 l -1.25,1.08 -66.7,35.63 c -6.77,-102.69 39.13,-167.07 66.44,-195.24 2.28,39.93 3.15,74.74 3,105.05 0.01,-2.38 0.01,-4.78 0.01,-7.22 0.01,-7.07 -0.05,-14.36 -0.16,-21.91 -1.16,-77.42 -8.49,-180.39 -26.91,-316.77"
         id="path250" />
    </clipPath>
  </defs>
  <sodipodi:namedview
     id="namedview4"
     pagecolor="#ffffff"
     bordercolor="#000000"
     borderopacity="0.25"
     inkscape:showpageshadow="2"
     inkscape:pageopacity="0.0"
     inkscape:pagecheckerboard="0"
     inkscape:deskcolor="#d1d1d1" />
  <g
     id="g8"
     inkscape:groupmode="layer"
     inkscape:label="ink_ext_XXXXXX"
     transform="matrix(1.3333333,0,0,-1.3333333,0,496.08)">
    <g
       id="g10"
       transform="scale(0.1)">
      <path
         d="m 4167.79,285.211 h 331.22 v -2.5 h -331.22 v 2.5"
         style="fill:#eeeeee;fill-opacity:1;fill-rule:nonzero;stroke:none"
         id="path12" />
      <path
         d="m 3225.27,255.578 h 86.9297 v 2.5 H 3225.27 Z"
         style="fill:#eeeeee;fill-opacity:1;fill-rule:nonzero;stroke:none"
         id="path14" />
      <path
         d="m 3965.86,378.078 h 191.92 v -2.5 h -191.92 v 2.5"
         style="fill:#eeeeee;fill-opacity:1;fill-rule:nonzero;stroke:none"
         id="path16" />
      <path
         d="m 524.59,361.27 h 431.933 v -2.5 H 524.59 v 2.5"
         style="fill:#eeeeee;fill-opacity:1;fill-rule:nonzero;stroke:none"
         id="path18" />
      <path
         d="m 1045.56,361.27 h 63.33 v -2.5 h -63.33 v 2.5"
         style="fill:#eeeeee;fill-opacity:1;fill-rule:nonzero;stroke:none"
         id="path20" />
      <path
         d="m 1314.71,316.551 h 936.758 v 2.5 H 1314.71 Z"
         style="fill:#eeeeee;fill-opacity:1;fill-rule:nonzero;stroke:none"
         id="path22" />
      <path
         d="m 453.023,3718.13 c -30.097,0 -54.582,-24.48 -54.582,-54.58 V 949.238 c 0,-30.097 24.485,-54.578 54.582,-54.578 H 2384.01 c 30.09,0 54.57,24.481 54.57,54.578 V 3663.55 c 0,30.1 -24.48,54.58 -54.57,54.58 H 453.023 M 2384.01,892.16 H 453.023 c -31.476,0 -57.082,25.602 -57.082,57.078 V 3663.55 c 0,31.47 25.606,57.08 57.082,57.08 H 2384.01 c 31.46,0 57.07,-25.61 57.07,-57.08 V 949.238 c 0,-31.476 -25.61,-57.078 -57.07,-57.078"
         style="fill:#eeeeee;fill-opacity:1;fill-rule:nonzero;stroke:none"
         id="path24" />
      <path
         d="m 2615.99,3718.13 c -30.09,0 -54.57,-24.48 -54.57,-54.58 V 949.238 c 0,-30.097 24.48,-54.578 54.57,-54.578 h 1930.99 c 30.1,0 54.58,24.481 54.58,54.578 V 3663.55 c 0,30.1 -24.48,54.58 -54.58,54.58 H 2615.99 M 4546.98,892.16 H 2615.99 c -31.46,0 -57.07,25.602 -57.07,57.078 V 3663.55 c 0,31.47 25.61,57.08 57.07,57.08 h 1930.99 c 31.47,0 57.08,-25.61 57.08,-57.08 V 949.238 c 0,-31.476 -25.61,-57.078 -57.08,-57.078"
         style="fill:#eeeeee;fill-opacity:1;fill-rule:nonzero;stroke:none"
         id="path26" />
      <path
         d="m 0,443.668 h 5000 v 2.5 H 0 Z"
         style="fill:#eeeeee;fill-opacity:1;fill-rule:nonzero;stroke:none"
         id="path28" />
      <path
         d="m 1193.31,1122.66 c -8.45,96.58 -107.05,132.74 -223.869,122.52 -116.824,-10.23 -207.64,-62.95 -199.191,-159.54 l 423.06,37.02"
         style="fill:#f4f4f4;fill-opacity:1;fill-rule:nonzero;stroke:none"
         id="path30" />
      <path
         d="m 965.582,1289.31 c 54.208,4.73 71.518,50.54 66.778,104.75 -4.74,54.22 -29.74,96.32 -83.958,91.57 -54.218,-4.73 -71.527,-50.53 -66.781,-104.75 4.742,-54.22 29.742,-96.32 83.961,-91.57"
         style="fill:#f4f4f4;fill-opacity:1;fill-rule:nonzero;stroke:none"
         id="path32" />
      <path
         d="m 3401.01,3180.45 c 2.61,-29.9 -19.51,-56.27 -49.41,-58.88 -29.9,-2.62 -56.26,19.5 -58.88,49.4 -2.61,29.91 19.51,56.26 49.41,58.88 29.9,2.61 56.26,-19.5 58.88,-49.4"
         style="fill:#f8f8f9;fill-opacity:1;fill-rule:nonzero;stroke:none"
         id="path34" />
      <path
         d="m 3701.73,3206.76 c 2.62,-29.9 -19.5,-56.26 -49.4,-58.88 -29.9,-2.62 -56.26,19.5 -58.88,49.4 -2.62,29.9 19.5,56.26 49.41,58.88 29.89,2.61 56.26,-19.5 58.87,-49.4"
         style="fill:#f8f8f9;fill-opacity:1;fill-rule:nonzero;stroke:none"
         id="path36" />
      <path
         d="m 4002.46,3233.07 c 2.61,-29.91 -19.51,-56.27 -49.4,-58.88 -29.91,-2.62 -56.26,19.5 -58.88,49.4 -2.62,29.9 19.5,56.26 49.4,58.88 29.9,2.61 56.26,-19.51 58.88,-49.4"
         style="fill:#f8f8f9;fill-opacity:1;fill-rule:nonzero;stroke:none"
         id="path38" />
      <path
         d="m 3427.82,2873.92 c 2.62,-29.9 -19.5,-56.26 -49.4,-58.88 -29.9,-2.61 -56.26,19.51 -58.88,49.41 -2.61,29.9 19.51,56.26 49.41,58.87 29.9,2.62 56.26,-19.5 58.87,-49.4"
         style="fill:#f8f8f9;fill-opacity:1;fill-rule:nonzero;stroke:none"
         id="path40" />
      <path
         d="m 3728.55,2900.23 c 2.61,-29.9 -19.5,-56.26 -49.4,-58.87 -29.9,-2.62 -56.26,19.5 -58.88,49.4 -2.61,29.9 19.51,56.26 49.4,58.87 29.91,2.62 56.26,-19.5 58.88,-49.4"
         style="fill:#f8f8f9;fill-opacity:1;fill-rule:nonzero;stroke:none"
         id="path42" />
      <path
         d="m 4029.28,2926.54 c 2.61,-29.9 -19.5,-56.26 -49.41,-58.87 -29.89,-2.62 -56.26,19.5 -58.87,49.4 -2.62,29.9 19.5,56.26 49.4,58.87 29.9,2.62 56.26,-19.5 58.88,-49.4"
         style="fill:#f8f8f9;fill-opacity:1;fill-rule:nonzero;stroke:none"
         id="path44" />
      <path
         d="m 3454.64,2567.4 c 2.62,-29.9 -19.5,-56.26 -49.41,-58.88 -29.89,-2.62 -56.26,19.5 -58.87,49.4 -2.61,29.9 19.5,56.26 49.4,58.88 29.9,2.61 56.26,-19.5 58.88,-49.4"
         style="fill:#f8f8f9;fill-opacity:1;fill-rule:nonzero;stroke:none"
         id="path46" />
      <path
         d="m 3755.37,2593.71 c 2.61,-29.9 -19.51,-56.26 -49.41,-58.88 -29.9,-2.61 -56.26,19.51 -58.87,49.4 -2.62,29.91 19.5,56.26 49.4,58.88 29.9,2.62 56.26,-19.5 58.88,-49.4"
         style="fill:#f8f8f9;fill-opacity:1;fill-rule:nonzero;stroke:none"
         id="path48" />
      <path
         d="m 4056.09,2620.02 c 2.62,-29.9 -19.5,-56.26 -49.4,-58.88 -29.9,-2.61 -56.26,19.5 -58.87,49.4 -2.62,29.9 19.5,56.26 49.4,58.88 29.9,2.62 56.26,-19.5 58.87,-49.4"
         style="fill:#f8f8f9;fill-opacity:1;fill-rule:nonzero;stroke:none"
         id="path50" />
      <path
         d="m 3991.12,2602.37 -617.86,-54.06 547.81,665.67 -561.29,-49.11 c -6.56,-0.57 -12.34,4.28 -12.91,10.84 -0.58,6.56 4.27,12.34 10.84,12.91 l 617.86,54.06 -547.83,-665.67 561.3,49.1 c 6.56,0.58 12.34,-4.27 12.91,-10.83 0.58,-6.56 -4.27,-12.34 -10.83,-12.91"
         style="fill:#e9e9e8;fill-opacity:1;fill-rule:nonzero;stroke:none"
         id="path52" />
      <path
         d="m 4000.6,1414.1 c -2.05,5.89 -7.31,10.26 -13.53,10.68 -28.34,1.89 -52.28,12.5 -71.24,31.53 -24.71,24.8 -39.24,62.57 -41.59,107.39 -0.44,8.35 -7.44,14.86 -15.8,14.91 h -0.01 c -9.26,0.07 -16.63,-7.75 -16.13,-17 2.85,-52.58 20.62,-97.54 50.85,-127.89 23.61,-23.71 54.07,-37.6 88.76,-40.63 0.61,-0.05 1.39,-0.12 2.29,-0.19 11.5,-0.93 20.18,10.29 16.4,21.2"
         style="fill:#f4f4f4;fill-opacity:1;fill-rule:nonzero;stroke:none"
         id="path54" />
      <path
         d="m 3968.64,1222.16 c -132.54,11.59 -228.11,101.93 -258.36,242.89 -1.93,8.99 3.8,17.83 12.86,19.41 h 0.01 c 8.36,1.45 16.54,-3.85 18.32,-12.16 27.1,-126.76 112.18,-207.95 229.96,-218.26 129.17,-11.3 267.9,73.68 292.75,287.92 1.01,8.68 8.57,15.09 17.28,14.33 8.91,-0.77 15.59,-8.73 14.54,-17.61 -23.82,-201.99 -156.63,-331.46 -327.36,-316.52"
         style="fill:#f4f4f4;fill-opacity:1;fill-rule:nonzero;stroke:none"
         id="path56" />
      <path
         d="m 3718.59,1605.54 v 0 c -8.9,0.78 -15.59,8.73 -14.54,17.6 23.83,202.01 156.64,331.47 327.37,316.53 149.59,-13.09 250.45,-125.08 266.16,-293.78 0.83,-8.91 -6.09,-16.67 -15.02,-17.21 h -0.02 c -8.71,-0.52 -16.06,6.07 -16.89,14.75 -14.42,151.98 -104.18,252.73 -237.03,264.35 -129.16,11.3 -267.9,-73.67 -292.75,-287.92 -1,-8.68 -8.57,-15.08 -17.28,-14.32"
         style="fill:#f4f4f4;fill-opacity:1;fill-rule:nonzero;stroke:none"
         id="path58" />
      <path
         d="m 3975.15,1307.84 c -24.65,2.16 -47.75,7.91 -68.96,17.18 -8.64,3.77 -12.19,14.16 -7.68,22.43 3.93,7.21 12.7,10.32 20.22,7.02 19.94,-8.76 41.97,-13.9 65.72,-15.21 97.98,-5.61 201.37,63.78 211.51,231.44 6.24,103.26 -29.13,186.66 -95.17,226.57 -7.08,4.27 -9.72,13.23 -6.06,20.65 4.14,8.43 14.66,11.54 22.71,6.69 76.41,-46.14 117.46,-140.28 110.48,-255.83 -9.78,-161.67 -110.65,-269.19 -245.3,-261.49 -2.5,0.15 -5,0.34 -7.47,0.55"
         style="fill:#f4f4f4;fill-opacity:1;fill-rule:nonzero;stroke:none"
         id="path60" />
      <path
         d="m 3832.66,1407.58 c -7.74,-5.29 -18.32,-2.82 -23.01,5.29 -28.36,49.04 -41.61,112.28 -37.51,180.19 9.35,154.65 102.07,259.76 227.98,261.83 9.34,0.15 16.89,-7.66 16.36,-16.99 l -0.01,-0.04 c -0.47,-8.32 -7.24,-14.85 -15.56,-15.02 -93.37,-1.83 -187.18,-72.42 -196.81,-231.72 -3.74,-61.83 8.09,-118.9 33.44,-162.55 4.17,-7.16 1.97,-16.31 -4.88,-20.99"
         style="fill:#f4f4f4;fill-opacity:1;fill-rule:nonzero;stroke:none"
         id="path62" />
      <path
         d="m 4051.3,1420.65 v 0 c -3.26,7.42 -0.41,15.98 6.53,20.16 42.05,25.31 67.88,78.46 68.32,142.51 0.34,51.31 -14.54,94.71 -41.93,122.21 -21.12,21.21 -48.43,31.9 -81.16,31.83 -49.31,-0.12 -89.23,-27.14 -111.35,-74.66 -3.48,-7.49 -12.14,-11.02 -19.88,-8.18 -8.82,3.23 -13.01,13.39 -9.02,21.9 27.36,58.38 78.69,92.8 140.16,92.95 40.99,0.07 76.94,-14.16 103.93,-41.25 33.46,-33.61 51.66,-85.1 51.26,-145.02 -0.51,-75.59 -32.35,-138.95 -84.21,-169.96 -8.16,-4.88 -18.82,-1.2 -22.65,7.51"
         style="fill:#f4f4f4;fill-opacity:1;fill-rule:nonzero;stroke:none"
         id="path64" />
      <path
         d="m 3936.08,1538.23 c -9.08,-3.65 -19.26,1.63 -21.59,11.14 -1.06,4.33 -1.94,8.8 -2.63,13.39 -9.05,59.85 23.12,111.95 74.83,121.19 26.69,4.78 50.49,-1.49 68.69,-17.74 7.38,-6.59 6.81,-18.37 -1.24,-24.14 l -1,-0.71 c -6.06,-4.35 -14.04,-3.36 -19.71,1.5 -10.85,9.31 -24.63,12.53 -41.11,9.58 -39.4,-7.05 -54.39,-48.05 -48.81,-84.9 0.54,-3.59 1.23,-7.06 2.04,-10.41 1.91,-7.85 -1.97,-15.89 -9.47,-18.9"
         style="fill:#f4f4f4;fill-opacity:1;fill-rule:nonzero;stroke:none"
         id="path66" />
      <path
         d="m 3988.97,1476.65 -0.14,0.01 c -11.03,0.99 -17.12,13.35 -11.23,22.73 l 1.36,2.17 c 2.95,4.71 8.22,7.29 13.75,6.91 4.74,-0.33 9.77,-0.02 15.02,0.91 34.41,6.17 50.2,38.21 49.93,70.77 -0.06,8.12 5.56,15.14 13.6,16.36 9.38,1.42 18.26,-5.56 18.43,-15.06 0.95,-52.18 -29.76,-95.25 -76.33,-103.57 -8.4,-1.5 -16.57,-1.91 -24.39,-1.23"
         style="fill:#f4f4f4;fill-opacity:1;fill-rule:nonzero;stroke:none"
         id="path68" />
      <path
         d="m 3996.07,1535.74 c -17.04,1.49 -29.74,12.97 -34.35,29.36 -2.67,9.5 5.3,18.7 15.13,17.84 l 3.67,-0.32 c 5.7,-0.5 10.4,-4.41 12.3,-9.8 0.93,-2.64 2.71,-4.9 6.04,-5.19 7.69,-0.68 9.05,10.36 9.25,12.57 0.13,1.59 0.47,7.72 -2.16,11.32 -2.57,3.55 -4.33,7.6 -3.95,11.96 1.25,14.23 19.23,19.95 28.3,8.91 7.2,-8.78 10.91,-21.07 9.7,-34.97 -2.29,-26.18 -20.77,-43.71 -43.93,-41.68"
         style="fill:#f4f4f4;fill-opacity:1;fill-rule:nonzero;stroke:none"
         id="path70" />
      <path
         d="m 3695.34,1893.62 v 0 c -8.81,0.77 -15.32,8.54 -14.55,17.35 l 12.13,138.65 138.66,-12.13 c 8.8,-0.77 15.31,-8.54 14.55,-17.34 -0.77,-8.81 -8.54,-15.32 -17.35,-14.55 l -106.76,9.34 -9.34,-106.77 c -0.77,-8.8 -8.53,-15.32 -17.34,-14.55"
         style="fill:#f4f4f4;fill-opacity:1;fill-rule:nonzero;stroke:none"
         id="path72" />
      <path
         d="m 4354.62,1835.95 v 0 c -8.8,0.77 -15.32,8.53 -14.55,17.33 l 9.34,106.77 -106.76,9.34 c -8.81,0.77 -15.33,8.53 -14.55,17.34 0.77,8.81 8.53,15.32 17.33,14.55 l 138.66,-12.13 -12.13,-138.65 c -0.77,-8.81 -8.53,-15.32 -17.34,-14.55"
         style="fill:#f4f4f4;fill-opacity:1;fill-rule:nonzero;stroke:none"
         id="path74" />
      <path
         d="m 4305.47,1090.46 -138.66,12.13 c -8.81,0.77 -15.32,8.53 -14.55,17.33 0.77,8.81 8.54,15.32 17.34,14.55 l 106.77,-9.33 9.34,106.76 c 0.77,8.81 8.53,15.33 17.34,14.55 8.81,-0.77 15.32,-8.53 14.55,-17.34 l -12.13,-138.65"
         style="fill:#f4f4f4;fill-opacity:1;fill-rule:nonzero;stroke:none"
         id="path76" />
      <path
         d="m 3752.95,1138.79 -138.66,12.14 12.14,138.66 c 0.76,8.8 8.53,15.31 17.33,14.54 8.81,-0.76 15.32,-8.52 14.56,-17.33 l -9.35,-106.78 106.77,-9.34 c 8.81,-0.77 15.32,-8.53 14.55,-17.34 -0.77,-8.8 -8.53,-15.31 -17.34,-14.55"
         style="fill:#f4f4f4;fill-opacity:1;fill-rule:nonzero;stroke:none"
         id="path78" />
      <path
         d="m 747.301,1438.9 v 0 c -5.414,-0.48 -10.192,3.52 -10.664,8.94 l -7.457,85.26 85.254,7.45 c 5.414,0.48 10.183,-3.53 10.66,-8.95 0.472,-5.41 -3.531,-10.18 -8.946,-10.66 l -65.644,-5.74 5.742,-65.65 c 0.473,-5.41 -3.535,-10.18 -8.945,-10.65"
         style="fill:#e3e3e2;fill-opacity:1;fill-rule:nonzero;stroke:none"
         id="path80" />
      <path
         d="m 1152.66,1474.36 v 0 c -5.41,-0.47 -10.18,3.53 -10.66,8.94 l -5.74,65.65 -65.65,-5.75 c -5.41,-0.47 -10.19,3.54 -10.66,8.95 -0.47,5.42 3.53,10.18 8.95,10.66 l 85.25,7.46 7.46,-85.25 c 0.47,-5.42 -3.53,-10.19 -8.95,-10.66"
         style="fill:#e3e3e2;fill-opacity:1;fill-rule:nonzero;stroke:none"
         id="path82" />
      <path
         d="m 1194.66,1107.26 -85.26,-7.46 c -5.41,-0.47 -10.19,3.53 -10.66,8.95 -0.47,5.41 3.54,10.19 8.95,10.65 l 65.64,5.76 -5.74,65.64 c -0.47,5.41 3.53,10.19 8.95,10.66 5.41,0.47 10.18,-3.53 10.66,-8.94 l 7.46,-85.26"
         style="fill:#e3e3e2;fill-opacity:1;fill-rule:nonzero;stroke:none"
         id="path84" />
      <path
         d="m 854.941,1077.54 -85.253,-7.46 -7.461,85.25 c -0.473,5.42 3.531,10.2 8.945,10.67 5.414,0.47 10.191,-3.54 10.664,-8.95 l 5.742,-65.64 65.645,5.74 c 5.414,0.47 10.191,-3.54 10.664,-8.95 0.472,-5.42 -3.532,-10.19 -8.946,-10.66"
         style="fill:#e3e3e2;fill-opacity:1;fill-rule:nonzero;stroke:none"
         id="path86" />
      <path
         d="m 1007.22,2655.38 8.02,-91.75 c 1.32,-15.06 -9.82,-28.33 -24.881,-29.65 -15.054,-1.31 -28.328,9.82 -29.644,24.88 l -8.027,91.75 c -11.985,7.38 -20.536,20.01 -21.852,35.11 -2.223,25.35 16.535,47.7 41.883,49.92 25.351,2.21 47.701,-16.54 49.921,-41.89 1.32,-15.1 -4.91,-29.02 -15.42,-38.37 z m 138.61,205.3 -326.314,-28.55 -6.68,76.35 c -6.93,79.22 51.883,149.31 131.094,156.24 79.21,6.92 149.3,-51.88 156.23,-131.09 l 3.88,-44.38 47.08,4.12 -3.88,44.37 c -9.2,105.18 -102.25,183.26 -207.431,174.06 -105.176,-9.21 -183.25,-102.25 -174.051,-207.44 l 6.719,-76.79 c -37.969,-7.39 -65,-42.41 -61.555,-81.81 l 23.312,-266.43 c 3.688,-42.13 40.825,-73.3 82.954,-69.61 l 365.302,31.96 c 42.12,3.69 73.29,40.82 69.6,82.95 l -23.31,266.44 c -3.68,42.13 -40.83,73.29 -82.95,69.61"
         style="fill:#eeeeee;fill-opacity:1;fill-rule:nonzero;stroke:none"
         id="path88" />
      <path
         d="m 1643.81,2864.16 c -44.68,1.25 -81.94,38.5 -83.21,83.18 -1.3,45.03 32.35,82.64 75.78,87.65 5.25,0.61 9.89,-3.51 9.89,-8.79 0,-4.44 -3.31,-8.17 -7.72,-8.67 -38.29,-4.34 -67.07,-40.56 -59.05,-81.4 5.21,-26.52 26.58,-47.89 53.11,-53.07 43.53,-8.52 81.79,24.74 81.79,66.78 0,14.07 -4.34,27.7 -12.33,39.1 -2.52,3.6 -1.84,8.52 1.46,11.43 3.95,3.5 10.1,2.76 13.12,-1.57 9.95,-14.3 15.35,-31.35 15.35,-48.96 0,-48.08 -39.8,-87.05 -88.19,-85.68 m 215.81,-45.43 -22.59,5.41 c -4.73,1.13 -7.65,5.88 -6.51,10.6 1.13,4.73 5.88,7.64 10.6,6.51 l 9.77,-2.34 c 7.74,14.25 13.96,29.23 18.54,44.67 l -52.52,32.22 0.95,5.83 c 1.68,10.3 2.5,19.53 2.5,28.21 0,8.68 -0.82,17.91 -2.5,28.22 l -0.95,5.83 52.52,32.21 c -4.58,15.44 -10.8,30.42 -18.54,44.67 l -59.85,-14.33 -3.46,4.79 c -11.05,15.36 -24.52,28.83 -39.87,39.88 l -4.84,3.48 14.34,59.86 c -14.25,7.75 -29.23,13.97 -44.68,18.56 l -32.21,-52.53 -5.83,0.95 c -18.68,3.03 -37.74,3.03 -56.43,0 l -5.82,-0.95 -32.22,52.52 c -2,-0.6 -4,-1.22 -6,-1.87 -4.46,-1.45 -9.25,0.94 -10.87,5.34 -1.69,4.63 0.71,9.85 5.39,11.38 4.39,1.44 8.82,2.74 13.23,3.92 l 6.34,1.69 32.99,-53.79 c 17.95,2.49 32.41,2.49 50.35,0 l 32.99,53.79 6.34,-1.68 c 21.26,-5.66 41.76,-14.18 60.95,-25.3 l 5.66,-3.29 -14.68,-61.3 c 13.4,-10.27 25.35,-22.22 35.62,-35.62 l 61.29,14.68 3.29,-5.66 c 11.13,-19.18 19.64,-39.69 25.3,-60.95 l 1.68,-6.33 -53.78,-32.99 c 1.24,-8.96 1.84,-17.25 1.84,-25.18 0,-7.94 -0.6,-16.21 -1.84,-25.18 l 53.78,-32.98 -1.68,-6.34 c -5.66,-21.26 -14.17,-41.77 -25.3,-60.95 l -3.29,-5.66 m -357.37,4.9 c -2.78,3.17 -5.45,6.43 -8.02,9.78 l -61.3,-14.68 -3.28,5.66 c -11.13,19.18 -19.65,39.69 -25.3,60.95 l -1.69,6.34 53.79,32.98 c -1.25,8.97 -1.85,17.24 -1.85,25.18 0,7.93 0.6,16.22 1.85,25.18 l -53.79,32.99 1.69,6.33 c 5.65,21.26 14.17,41.77 25.3,60.95 l 3.28,5.66 61.3,-14.68 c 10.27,13.4 22.22,25.35 35.61,35.62 l -11.11,46.39 c -1.13,4.71 1.78,9.45 6.49,10.58 l 0.03,0.01 c 4.72,1.13 9.46,-1.78 10.59,-6.49 l 13.85,-57.79 -4.84,-3.48 c -15.36,-11.05 -28.83,-24.52 -39.88,-39.88 l -3.45,-4.79 -59.85,14.33 c -7.75,-14.25 -13.97,-29.23 -18.55,-44.67 l 52.52,-32.21 -0.95,-5.83 c -1.68,-10.31 -2.49,-19.54 -2.49,-28.22 0,-8.68 0.81,-17.91 2.49,-28.21 l 0.95,-5.83 -52.52,-32.22 c 4.58,-15.44 10.8,-30.42 18.55,-44.67 l 59.85,14.34 3.45,-4.8 c 3.25,-4.52 6.74,-8.91 10.42,-13.12 3.06,-3.5 2.98,-8.73 -0.37,-11.95 l -0.32,-0.31 c -3.55,-3.42 -9.21,-3.13 -12.45,0.56 m 202.2,-117.4 -33,53.77 c -17.86,-2.46 -32.48,-2.46 -50.35,0 l -32.99,-53.77 -6.33,1.68 c -21.26,5.65 -41.77,14.16 -60.95,25.3 l -5.67,3.29 13.99,58.38 c 1.13,4.73 5.88,7.64 10.61,6.51 4.72,-1.14 7.63,-5.88 6.5,-10.61 l -10.92,-45.54 c 14.25,-7.76 29.23,-13.98 44.68,-18.56 l 32.22,52.53 5.83,-0.95 c 18.68,-3.05 37.74,-3.05 56.42,0 l 5.83,0.95 32.22,-52.53 c 15.44,4.59 30.42,10.8 44.67,18.56 l -14.34,59.84 4.8,3.45 c 13.08,9.4 24.73,20.5 34.74,33.08 2.97,3.74 8.26,4.62 12.14,1.84 4.01,-2.9 4.96,-8.59 1.88,-12.47 -9.84,-12.43 -21.14,-23.55 -33.72,-33.19 l 14.68,-61.29 -5.66,-3.29 c -19.18,-11.14 -39.69,-19.65 -60.95,-25.3 l -6.33,-1.68"
         style="fill:#f4f4f4;fill-opacity:1;fill-rule:nonzero;stroke:none"
         id="path90" />
      <path
         d="m 1043.96,2076.26 c -28.86,0.82 -52.929,24.87 -53.757,53.74 -0.832,29.09 20.907,53.38 48.967,56.63 3.38,0.39 6.39,-2.27 6.39,-5.68 v -0.01 c 0,-2.86 -2.14,-5.28 -4.99,-5.6 -24.74,-2.8 -43.328,-26.2 -38.15,-52.59 3.36,-17.13 17.17,-30.93 34.31,-34.28 28.12,-5.5 52.84,15.99 52.84,43.15 0,9.09 -2.8,17.89 -7.97,25.25 -1.63,2.33 -1.18,5.51 0.94,7.39 2.56,2.26 6.53,1.78 8.48,-1.02 6.43,-9.23 9.91,-20.25 9.91,-31.62 0,-31.07 -25.71,-56.24 -56.97,-55.36 z m 139.42,-29.35 -14.6,3.5 c -3.05,0.73 -4.93,3.79 -4.2,6.85 0.73,3.05 3.8,4.93 6.86,4.2 l 6.3,-1.51 c 5,9.21 9.02,18.88 11.98,28.86 l -33.93,20.82 0.62,3.76 c 1.08,6.65 1.61,12.62 1.61,18.23 0,5.6 -0.53,11.56 -1.61,18.22 l -0.62,3.77 33.93,20.81 c -2.96,9.98 -6.98,19.65 -11.98,28.86 l -38.67,-9.26 -2.22,3.09 c -7.15,9.93 -15.84,18.63 -25.77,25.77 l -3.12,2.25 9.26,38.67 c -9.21,5 -18.88,9.02 -28.86,11.99 l -20.81,-33.93 -3.77,0.61 c -12.07,1.95 -24.38,1.95 -36.45,0 l -3.77,-0.61 -20.81,33.92 c -1.29,-0.38 -2.58,-0.79 -3.871,-1.2 -2.879,-0.95 -5.984,0.6 -7.024,3.45 -1.097,2.99 0.458,6.35 3.481,7.35 2.84,0.92 5.704,1.77 8.544,2.53 l 4.1,1.09 21.31,-34.75 c 11.6,1.61 20.94,1.61 32.53,0 l 21.31,34.75 4.1,-1.09 c 13.73,-3.65 26.98,-9.16 39.37,-16.34 l 3.66,-2.13 -9.48,-39.6 c 8.65,-6.64 16.37,-14.35 23,-23.01 l 39.6,9.49 2.12,-3.66 c 7.2,-12.39 12.7,-25.64 16.35,-39.38 l 1.09,-4.09 -34.75,-21.3 c 0.8,-5.8 1.19,-11.15 1.19,-16.27 0,-5.13 -0.39,-10.48 -1.19,-16.27 l 34.75,-21.31 -1.09,-4.09 c -3.65,-13.74 -9.15,-26.99 -16.35,-39.38 z m -230.868,3.17 c -1.793,2.04 -3.524,4.15 -5.184,6.32 l -39.598,-9.49 -2.121,3.66 c -7.191,12.39 -12.695,25.64 -16.347,39.38 l -1.086,4.09 34.746,21.31 c -0.805,5.79 -1.192,11.14 -1.192,16.27 0,5.12 0.387,10.47 1.192,16.27 l -34.746,21.3 1.086,4.09 c 3.652,13.74 9.156,26.99 16.347,39.38 l 2.121,3.66 39.598,-9.49 c 6.637,8.66 14.352,16.37 23.016,23.01 l -7.184,29.97 c -0.734,3.05 1.149,6.11 4.195,6.84 l 0.016,0.01 c 3.051,0.72 6.113,-1.15 6.844,-4.2 l 8.945,-37.33 -3.125,-2.25 c -9.922,-7.14 -18.625,-15.84 -25.765,-25.77 l -2.227,-3.09 -38.668,9.26 c -5.008,-9.21 -9.023,-18.88 -11.984,-28.86 l 33.929,-20.81 -0.613,-3.77 c -1.086,-6.66 -1.609,-12.62 -1.609,-18.22 0,-5.61 0.523,-11.58 1.609,-18.23 l 0.613,-3.76 -33.929,-20.82 c 2.961,-9.98 6.976,-19.65 11.984,-28.86 l 38.668,9.26 2.227,-3.1 c 2.101,-2.92 4.351,-5.75 6.73,-8.47 1.98,-2.26 1.926,-5.64 -0.238,-7.72 l -0.211,-0.2 c -2.289,-2.21 -5.946,-2.03 -8.039,0.36 z m 130.618,-75.85 -21.3,34.74 c -11.55,-1.59 -21,-1.59 -32.54,0 l -21.31,-34.74 -4.09,1.09 c -13.738,3.65 -26.988,9.15 -39.378,16.34 l -3.66,2.13 9.035,37.72 c 0.734,3.05 3.804,4.94 6.855,4.2 3.055,-0.73 4.934,-3.8 4.199,-6.85 l -7.05,-29.42 c 9.211,-5.02 18.882,-9.03 28.859,-11.99 l 20.81,33.94 3.77,-0.62 c 12.07,-1.97 24.38,-1.97 36.45,0 l 3.77,0.62 20.81,-33.94 c 9.98,2.96 19.65,6.97 28.86,11.99 l -9.26,38.66 3.09,2.22 c 8.46,6.08 15.99,13.25 22.45,21.38 1.92,2.41 5.34,2.98 7.84,1.18 2.6,-1.86 3.21,-5.55 1.22,-8.06 -6.36,-8.02 -13.66,-15.21 -21.78,-21.44 l 9.48,-39.59 -3.66,-2.13 c -12.39,-7.19 -25.64,-12.69 -39.37,-16.34 l -4.1,-1.09"
         style="fill:#e9e9e8;fill-opacity:1;fill-rule:nonzero;stroke:none"
         id="path92" />
      <path
         d="M 4438.89,113.23 C 4438.89,50.6914 3570.82,0 2500,0 1429.18,0 561.109,50.6914 561.109,113.23 c 0,62.532 868.071,113.231 1938.891,113.231 1070.82,0 1938.89,-50.699 1938.89,-113.231"
         style="fill:#f8f8f9;fill-opacity:1;fill-rule:nonzero;stroke:none"
         id="path94" />
      <path
         d="M 3634.5,2811.89 H 3308.89 L 3078.58,179.391 h 325.6 c 92.6,0 174.53,75.339 182.63,167.929 l 200.92,2296.64 c 8.11,92.6 -60.63,167.93 -153.23,167.93"
         style="fill:#4870c0;fill-opacity:1;fill-rule:nonzero;stroke:none"
         id="path96" />
      <path
         d="m 3568.06,2811.89 h -1102 c -92.59,0 -174.52,-75.33 -182.62,-167.93 L 2082.51,347.32 c -8.1,-92.59 60.64,-167.929 153.24,-167.929 h 1101.99 c 92.6,0 174.53,75.339 182.63,167.929 l 200.93,2296.64 c 8.1,92.6 -60.65,167.93 -153.24,167.93"
         style="fill:#4870c0;fill-opacity:1;fill-rule:nonzero;stroke:none"
         id="path98" />
      <path
         d="M 3337.74,179.391 H 2235.75 c -87.62,0 -153.88,67.461 -153.88,153.168 0,4.871 0.21,9.793 0.64,14.761 l 55.51,634.43 h 5.25 l -8.75,-100 h 48.56 l -46.76,-534.43 c -5.51,-63.019 41.11,-114.121 104.14,-114.121 h 1101.99 c 63.03,0 118.6,51.102 124.11,114.121 l 200.93,2296.64 c 5.51,63.03 -41.11,114.12 -104.14,114.12 h -290.54 c -17.14,0 -33.23,-11.24 -39.58,-27.67 -23.49,-60.69 -82.98,-102.27 -146.34,-102.27 h -171.8 c -63.36,0 -115.58,41.58 -128.45,102.27 v 0.01 c -2.04,9.61 -7.72,17.45 -15.52,22.29 l 0.96,3.7 h -9.06 c -3.49,1.09 -7.23,1.67 -11.12,1.67 h -290.54 c -6.67,0 -13.26,-0.57 -19.71,-1.67 h -105.06 c 33.74,34.05 80.08,55.48 129.47,55.48 h 1102 c 87.62,0 153.89,-67.46 153.89,-153.17 0,-4.86 -0.22,-9.79 -0.65,-14.76 L 3520.37,347.32 c -8.1,-92.59 -90.03,-167.929 -182.63,-167.929 v 0 M 3012.61,2760.98 c -25.36,0 -47.71,-20.55 -49.93,-45.91 -2.22,-25.36 16.54,-45.91 41.89,-45.91 25.36,0 47.71,20.55 49.93,45.91 2.22,25.36 -16.54,45.91 -41.89,45.91"
         style="fill:#799bd7;fill-opacity:1;fill-rule:nonzero;stroke:none"
         id="path100" />
      <path
         d="M 3342.45,233.199 H 2240.46 c -63.03,0 -109.65,51.102 -104.14,114.121 l 46.76,534.43 h 412.21 l 72.76,278.96 c 9.47,-18.53 28.64,-30.94 51.8,-30.94 h 300.09 c 35.05,0 65.95,28.42 69.02,63.47 3.07,35.05 -22.86,63.47 -57.92,63.47 h -300.08 c -16.13,0 -31.38,-6.02 -43.44,-15.93 l -6.82,79.4 h 591.47 c 22.87,0 43.03,18.53 45.03,41.4 l 3.86,44.12 c 2,22.87 -14.91,41.41 -37.78,41.41 h -613.47 l -5.45,63.47 h 624.47 c 22.87,0 43.03,18.53 45.03,41.4 l 3.86,44.12 c 2,22.87 -14.92,41.41 -37.78,41.41 h -630.57 l 38.91,149.18 c 52.91,-53.2 127.03,-85.71 211.59,-85.71 178.31,0 335.5,144.55 351.1,322.85 15.6,178.31 -116.3,322.85 -294.61,322.85 -96.27,0 -186.38,-42.13 -251.38,-108.97 l -5.48,63.77 92.58,354.94 H 2746 l 25.12,96.29 c 7.8,-4.84 13.48,-12.68 15.52,-22.29 v -0.01 c 12.87,-60.69 65.09,-102.27 128.45,-102.27 h 171.8 c 63.36,0 122.85,41.58 146.34,102.27 6.35,16.43 22.44,27.67 39.58,27.67 h 290.54 c 63.03,0 109.65,-51.09 104.14,-114.12 L 3466.56,347.32 c -5.51,-63.019 -61.08,-114.121 -124.11,-114.121 m -647.66,557.16 c -37.04,0 -69.69,-30.019 -72.93,-67.058 l -20.49,-234.25 c -3.24,-37.039 24.15,-67.071 61.19,-67.071 h 321.18 c 37.04,0 69.69,30.032 72.93,67.071 l 20.49,234.25 c 3.25,37.039 -24.15,67.058 -61.19,67.058 H 2694.79 M 3542.71,2723.1 c -7.42,0 -13.98,-6.02 -14.62,-13.46 l -5.05,-57.7 c -0.65,-7.43 4.85,-13.45 12.27,-13.45 7.43,0 13.98,6.02 14.64,13.45 l 5.04,57.7 c 0.65,7.44 -4.84,13.46 -12.28,13.46 m -55.25,-16.56 c -7.43,0 -13.99,-6.02 -14.64,-13.45 l -3.6,-41.15 c -0.65,-7.43 4.85,-13.45 12.28,-13.45 7.43,0 13.98,6.02 14.63,13.45 l 3.6,41.15 c 0.65,7.43 -4.85,13.45 -12.27,13.45 m -55.27,-16.56 c -7.43,0 -13.98,-6.02 -14.63,-13.45 l -2.15,-24.59 c -0.65,-7.43 4.84,-13.45 12.28,-13.45 7.43,0 13.98,6.02 14.62,13.45 l 2.16,24.59 c 0.65,7.43 -4.85,13.45 -12.28,13.45 m -669.17,66.43 h -321.37 c 6.45,1.1 13.04,1.67 19.71,1.67 h 290.54 c 3.89,0 7.63,-0.58 11.12,-1.67"
         style="fill:#b0c8eb;fill-opacity:1;fill-rule:nonzero;stroke:none"
         id="path102" />
      <path
         d="m 3288.83,1510.58 h -771.24 c -22.86,0 -39.78,18.53 -37.78,41.4 l 3.86,44.12 c 2,22.87 22.16,41.41 45.03,41.41 h 771.24 c 22.86,0 39.78,-18.54 37.78,-41.41 l -3.86,-44.12 c -2,-22.87 -22.16,-41.4 -45.03,-41.4"
         style="fill:#ffffff;fill-opacity:1;fill-rule:nonzero;stroke:none"
         id="path104" />
      <path
         d="m 3272.17,1320.18 h -771.24 c -22.86,0 -39.78,18.53 -37.78,41.4 l 3.86,44.12 c 2,22.87 22.16,41.41 45.03,41.41 h 771.24 c 22.87,0 39.78,-18.54 37.78,-41.41 l -3.86,-44.12 c -2,-22.87 -22.16,-41.4 -45.03,-41.4"
         style="fill:#ffffff;fill-opacity:1;fill-rule:nonzero;stroke:none"
         id="path106" />
      <path
         d="m 3004.57,2669.16 c -25.35,0 -44.11,20.55 -41.89,45.91 2.22,25.36 24.57,45.91 49.93,45.91 25.35,0 44.11,-20.55 41.89,-45.91 -2.22,-25.36 -24.57,-45.91 -49.93,-45.91 m 6.22,70.98 c -13.86,0 -26.07,-11.22 -27.28,-25.07 -1.22,-13.85 9.03,-25.09 22.89,-25.09 13.85,0 26.06,11.24 27.27,25.09 1.21,13.85 -9.03,25.07 -22.88,25.07"
         style="fill:#688dd0;fill-opacity:1;fill-rule:nonzero;stroke:none"
         id="path108" />
      <path
         d="m 3006.4,2689.98 c -13.86,0 -24.11,11.24 -22.89,25.09 1.21,13.85 13.42,25.07 27.28,25.07 13.85,0 24.09,-11.22 22.88,-25.07 -1.21,-13.85 -13.42,-25.09 -27.27,-25.09"
         style="fill:#5a7fc8;fill-opacity:1;fill-rule:nonzero;stroke:none"
         id="path110" />
      <path
         d="m 3427.69,2638.49 c -7.44,0 -12.93,6.02 -12.28,13.45 l 2.15,24.59 c 0.65,7.43 7.2,13.45 14.63,13.45 7.43,0 12.93,-6.02 12.28,-13.45 l -2.16,-24.59 c -0.64,-7.43 -7.19,-13.45 -14.62,-13.45"
         style="fill:#f2f7fc;fill-opacity:1;fill-rule:nonzero;stroke:none"
         id="path112" />
      <path
         d="m 3535.31,2638.49 c -7.42,0 -12.92,6.02 -12.27,13.45 l 5.05,57.7 c 0.64,7.44 7.2,13.46 14.62,13.46 7.44,0 12.93,-6.02 12.28,-13.46 l -5.04,-57.7 c -0.66,-7.43 -7.21,-13.45 -14.64,-13.45"
         style="fill:#f2f7fc;fill-opacity:1;fill-rule:nonzero;stroke:none"
         id="path114" />
      <path
         d="m 3481.5,2638.49 c -7.43,0 -12.93,6.02 -12.28,13.45 l 3.6,41.15 c 0.65,7.43 7.21,13.45 14.64,13.45 7.42,0 12.92,-6.02 12.27,-13.45 l -3.6,-41.15 c -0.65,-7.43 -7.2,-13.45 -14.63,-13.45"
         style="fill:#f2f7fc;fill-opacity:1;fill-rule:nonzero;stroke:none"
         id="path116" />
      <path
         d="m 3270.97,2023.83 c -15.6,-178.3 -172.79,-322.85 -351.1,-322.85 -178.31,0 -310.21,144.55 -294.61,322.85 15.6,178.31 172.8,322.85 351.1,322.85 178.31,0 310.21,-144.54 294.61,-322.85"
         style="fill:#ffffff;fill-opacity:1;fill-rule:nonzero;stroke:none"
         id="path118" />
      <path
         d="m 2949.21,2036.37 c -84.85,0 -156.47,-32.28 -162.6,-102.42 l -6.81,-77.86 h 307.28 l 6.82,77.86 c 6.13,70.14 -59.83,102.42 -144.69,102.42"
         style="fill:#4870c0;fill-opacity:1;fill-rule:nonzero;stroke:none"
         id="path120" />
      <path
         d="m 2952.02,2068.42 c 39.38,0 57.54,31.93 60.98,71.31 3.45,39.38 -9.13,71.3 -48.51,71.3 -39.38,0 -57.54,-31.92 -60.98,-71.3 -3.45,-39.38 9.13,-71.31 48.51,-71.31"
         style="fill:#4870c0;fill-opacity:1;fill-rule:nonzero;stroke:none"
         id="path122" />
      <path
         d="m 3253.63,1576.32 c -20.96,0 -38.64,-7.98 -40.16,-25.3 l -1.68,-19.23 h 75.9 l 1.68,19.23 c 1.51,17.32 -14.78,25.3 -35.74,25.3"
         style="fill:#4870c0;fill-opacity:1;fill-rule:nonzero;stroke:none"
         id="path124" />
      <path
         d="m 3254.33,1584.23 c 9.72,0 14.21,7.89 15.05,17.62 0.86,9.72 -2.25,17.6 -11.97,17.6 -9.73,0 -14.22,-7.88 -15.07,-17.6 -0.85,-9.73 2.26,-17.62 11.99,-17.62"
         style="fill:#4870c0;fill-opacity:1;fill-rule:nonzero;stroke:none"
         id="path126" />
      <path
         d="m 3019.94,1129.77 h -300.09 c -35.05,0 -60.98,28.42 -57.91,63.47 3.06,35.05 33.96,63.47 69.02,63.47 h 300.08 c 35.06,0 60.99,-28.42 57.92,-63.47 -3.07,-35.05 -33.97,-63.47 -69.02,-63.47"
         style="fill:#4870c0;fill-opacity:1;fill-rule:nonzero;stroke:none"
         id="path128" />
      <path
         d="m 2983.74,421.98 h -321.18 c -37.04,0 -64.43,30.032 -61.19,67.071 l 20.49,234.25 c 3.24,37.039 35.89,67.058 72.93,67.058 h 321.18 c 37.04,0 64.44,-30.019 61.19,-67.058 l -20.49,-234.25 c -3.24,-37.039 -35.89,-67.071 -72.93,-67.071"
         style="fill:#4870c0;fill-opacity:1;fill-rule:nonzero;stroke:none"
         id="path130" />
      <path
         d="m 2832.35,527.191 c -13.23,0 -23.03,10.731 -21.87,23.969 l 7.06,80.66 c -9.25,7.352 -14.72,19.032 -13.56,32.301 1.95,22.289 21.6,40.359 43.89,40.359 22.28,0 38.77,-18.07 36.82,-40.359 -1.16,-13.269 -8.67,-24.941 -19.21,-32.301 l -7.05,-80.66 c -1.16,-13.238 -12.83,-23.969 -26.08,-23.969"
         style="fill:#b4caec;fill-opacity:1;fill-rule:nonzero;stroke:none"
         id="path132" />
      <path
         d="m 3018.81,741.602 h -41.39 l 10.14,115.898 c 6.1,69.648 -45.61,126.309 -115.26,126.309 -69.64,0 -131.26,-56.661 -137.35,-126.309 L 2724.8,741.602 h -41.39 l 10.14,115.898 c 8.1,92.469 89.9,167.7 182.37,167.7 92.48,0 161.12,-75.231 153.04,-167.7 l -10.15,-115.898"
         style="fill:#4870c0;fill-opacity:1;fill-rule:nonzero;stroke:none"
         id="path134" />
      <path
         d="m 3240.43,1425.47 c 8.56,0 14.92,-6.96 14.17,-15.53 l -0.97,-11.12 h -31.05 l 0.97,11.12 c 0.75,8.57 8.33,15.53 16.88,15.53 z m 18.28,-26.65 0.98,11.12 c 0.99,11.37 -7.45,20.62 -18.81,20.62 -11.37,0 -21.42,-9.25 -22.41,-20.62 l -0.98,-11.12 c -4.54,-0.01 -8.53,-3.68 -8.93,-8.22 l -2.59,-29.57 c -0.39,-4.54 2.97,-8.22 7.51,-8.22 h 41.2 c 4.54,0 8.54,3.68 8.94,8.22 l 2.59,29.57 c 0.4,4.54 -2.96,8.21 -7.5,8.22"
         style="fill:#4870c0;fill-opacity:1;fill-rule:nonzero;stroke:none"
         id="path136" />
      <path
         d="m 2638.47,1386.98 -14.38,2.97 c -1.7,0.35 -2.58,2.14 -1.87,3.82 l 5.99,14.16 c 1.29,3.04 -2.41,5.28 -4.74,2.88 l -10.87,-11.19 c -1.29,-1.33 -3.36,-1.33 -4.41,0 l -8.91,11.19 c -1.92,2.4 -6,0.16 -5.25,-2.88 l 3.51,-14.16 c 0.42,-1.68 -0.77,-3.47 -2.54,-3.82 l -14.9,-2.97 c -3.2,-0.64 -3.59,-5.13 -0.51,-5.77 l 14.39,-2.97 c 1.7,-0.35 2.58,-2.14 1.87,-3.82 l -5.99,-14.16 c -1.29,-3.04 2.41,-5.29 4.74,-2.88 l 10.87,11.19 c 1.29,1.33 3.36,1.33 4.41,0 l 8.91,-11.19 c 1.92,-2.41 6,-0.16 5.25,2.88 l -3.51,14.16 c -0.42,1.68 0.77,3.47 2.54,3.82 l 14.9,2.97 c 3.2,0.64 3.59,5.13 0.5,5.77"
         style="fill:#1d2a30;fill-opacity:1;fill-rule:nonzero;stroke:none"
         id="path138" />
      <path
         d="m 2733.11,1386.98 -14.39,2.97 c -1.7,0.35 -2.58,2.14 -1.87,3.82 l 5.99,14.16 c 1.29,3.04 -2.41,5.28 -4.74,2.88 l -10.87,-11.19 c -1.29,-1.33 -3.35,-1.33 -4.41,0 l -8.91,11.19 c -1.91,2.4 -6,0.16 -5.25,-2.88 l 3.51,-14.16 c 0.42,-1.68 -0.77,-3.47 -2.54,-3.82 l -14.9,-2.97 c -3.2,-0.64 -3.59,-5.13 -0.5,-5.77 l 14.38,-2.97 c 1.7,-0.35 2.58,-2.14 1.87,-3.82 l -5.99,-14.16 c -1.29,-3.04 2.41,-5.29 4.74,-2.88 l 10.87,11.19 c 1.29,1.33 3.36,1.33 4.41,0 l 8.91,-11.19 c 1.92,-2.41 6,-0.16 5.25,2.88 l -3.51,14.16 c -0.42,1.68 0.77,3.47 2.54,3.82 l 14.9,2.97 c 3.2,0.64 3.59,5.13 0.51,5.77"
         style="fill:#1d2a30;fill-opacity:1;fill-rule:nonzero;stroke:none"
         id="path140" />
      <path
         d="m 2827.73,1386.98 -14.38,2.97 c -1.7,0.35 -2.57,2.14 -1.87,3.82 l 6,14.16 c 1.28,3.04 -2.42,5.28 -4.75,2.88 l -10.87,-11.19 c -1.29,-1.33 -3.35,-1.33 -4.41,0 l -8.91,11.19 c -1.91,2.4 -6.01,0.16 -5.25,-2.88 l 3.51,-14.16 c 0.42,-1.68 -0.77,-3.47 -2.54,-3.82 l -14.89,-2.97 c -3.21,-0.64 -3.6,-5.13 -0.51,-5.77 l 14.38,-2.97 c 1.7,-0.35 2.58,-2.14 1.87,-3.82 l -5.99,-14.16 c -1.29,-3.04 2.41,-5.29 4.74,-2.88 l 10.87,11.19 c 1.29,1.33 3.36,1.33 4.42,0 l 8.91,-11.19 c 1.91,-2.41 6,-0.16 5.24,2.88 l -3.51,14.16 c -0.41,1.68 0.78,3.47 2.54,3.82 l 14.9,2.97 c 3.2,0.64 3.6,5.13 0.5,5.77"
         style="fill:#1d2a30;fill-opacity:1;fill-rule:nonzero;stroke:none"
         id="path142" />
      <path
         d="m 2922.37,1386.98 -14.39,2.97 c -1.7,0.35 -2.57,2.14 -1.87,3.82 l 5.99,14.16 c 1.29,3.04 -2.4,5.28 -4.74,2.88 l -10.87,-11.19 c -1.28,-1.33 -3.36,-1.33 -4.41,0 l -8.91,11.19 c -1.91,2.4 -6,0.16 -5.25,-2.88 l 3.52,-14.16 c 0.41,-1.68 -0.78,-3.47 -2.54,-3.82 l -14.91,-2.97 c -3.19,-0.64 -3.59,-5.13 -0.5,-5.77 l 14.38,-2.97 c 1.71,-0.35 2.58,-2.14 1.87,-3.82 l -5.99,-14.16 c -1.28,-3.04 2.41,-5.29 4.75,-2.88 l 10.87,11.19 c 1.28,1.33 3.35,1.33 4.41,0 l 8.91,-11.19 c 1.91,-2.41 6,-0.16 5.24,2.88 l -3.51,14.16 c -0.42,1.68 0.78,3.47 2.54,3.82 l 14.9,2.97 c 3.2,0.64 3.59,5.13 0.51,5.77"
         style="fill:#1d2a30;fill-opacity:1;fill-rule:nonzero;stroke:none"
         id="path144" />
      <path
         d="m 3017,1386.98 -14.38,2.97 c -1.71,0.35 -2.58,2.14 -1.87,3.82 l 5.99,14.16 c 1.28,3.04 -2.41,5.28 -4.75,2.88 l -10.87,-11.19 c -1.29,-1.33 -3.35,-1.33 -4.41,0 l -8.91,11.19 c -1.91,2.4 -6,0.16 -5.25,-2.88 l 3.51,-14.16 c 0.42,-1.68 -0.77,-3.47 -2.53,-3.82 l -14.9,-2.97 c -3.21,-0.64 -3.6,-5.13 -0.51,-5.77 l 14.38,-2.97 c 1.7,-0.35 2.58,-2.14 1.88,-3.82 l -6,-14.16 c -1.28,-3.04 2.41,-5.29 4.75,-2.88 l 10.87,11.19 c 1.28,1.33 3.35,1.33 4.41,0 l 8.91,-11.19 c 1.91,-2.41 6,-0.16 5.24,2.88 l -3.51,14.16 c -0.41,1.68 0.78,3.47 2.55,3.82 l 14.89,2.97 c 3.2,0.64 3.6,5.13 0.51,5.77"
         style="fill:#1d2a30;fill-opacity:1;fill-rule:nonzero;stroke:none"
         id="path146" />
      <path
         d="m 3111.63,1386.98 -14.38,2.97 c -1.7,0.35 -2.58,2.14 -1.87,3.82 l 5.99,14.16 c 1.28,3.04 -2.41,5.28 -4.74,2.88 l -10.88,-11.19 c -1.28,-1.33 -3.35,-1.33 -4.41,0 l -8.9,11.19 c -1.92,2.4 -6.01,0.16 -5.25,-2.88 l 3.51,-14.16 c 0.41,-1.68 -0.78,-3.47 -2.54,-3.82 l -14.9,-2.97 c -3.2,-0.64 -3.6,-5.13 -0.51,-5.77 l 14.38,-2.97 c 1.71,-0.35 2.59,-2.14 1.87,-3.82 l -5.98,-14.16 c -1.29,-3.04 2.4,-5.29 4.74,-2.88 l 10.87,11.19 c 1.29,1.33 3.35,1.33 4.41,0 l 8.91,-11.19 c 1.91,-2.41 6,-0.16 5.25,2.88 l -3.51,14.16 c -0.42,1.68 0.77,3.47 2.54,3.82 l 14.89,2.97 c 3.21,0.64 3.6,5.13 0.51,5.77"
         style="fill:#1d2a30;fill-opacity:1;fill-rule:nonzero;stroke:none"
         id="path148" />
      <path
         d="m 2883.53,1594.03 h -177.68 c -11.05,0 -20.78,-8.94 -21.74,-19.99 -0.97,-11.04 7.2,-19.99 18.24,-19.99 h 177.68 c 11.04,0 20.78,8.95 21.74,19.99 0.97,11.05 -7.2,19.99 -18.24,19.99"
         style="fill:#1d2a30;fill-opacity:1;fill-rule:nonzero;stroke:none"
         id="path150" />
      <path
         d="m 3063.9,1594.03 h -103.1 c -11.04,0 -20.77,-8.94 -21.74,-19.99 -0.96,-11.04 7.2,-19.99 18.24,-19.99 h 103.1 c 11.05,0 20.78,8.95 21.74,19.99 0.97,11.05 -7.2,19.99 -18.24,19.99"
         style="fill:#1d2a30;fill-opacity:1;fill-rule:nonzero;stroke:none"
         id="path152" />
      <path
         d="m 3200.01,687.512 c -66.99,-26.75 -125.72,-65.762 -165.92,-110.141 -23.56,20.059 -57.07,33.988 -97.24,40.359 l -4.72,0.758 -2.06,-23.597 2.63,-0.993 c 39.64,-14.988 71.92,-41.566 93.33,-76.859 l 3.36,-5.551 3.72,5.953 c 41.2,65.969 101.28,121.219 169.16,155.598 l 2.3,1.172 1.37,15.668 -5.93,-2.367"
         style="fill:#1d2a30;fill-opacity:1;fill-rule:nonzero;stroke:none"
         id="path154" />
      <path
         d="m 2183.08,881.75 h -48.56 l 8.75,100 h 48.56 l -8.75,-100"
         style="fill:#597ec8;fill-opacity:1;fill-rule:nonzero;stroke:none"
         id="path156" />
      <path
         d="m 2595.29,881.75 h -412.21 l 8.75,100 h 363.46 l 88.28,338.43 h 37.13 l 6.82,-79.4 c -14.16,-11.62 -23.93,-28.61 -25.58,-47.54 -1.04,-11.89 1.26,-23.02 6.11,-32.53 l -72.76,-278.96 m 74.52,565.36 h -31.42 l -5.45,63.47 h 31.42 l 5.45,-63.47 m -0.44,190.4 h -47.33 l -4.64,54.1 41.99,160.98 c 13.12,-24.34 29.6,-46.5 48.89,-65.9 l -38.91,-149.18"
         style="fill:#869fd4;fill-opacity:1;fill-rule:nonzero;stroke:none"
         id="path158" />
      <path
         d="m 2664.36,1510.58 h -31.42 l -10.9,126.93 h 47.33 l -11.97,-45.9 6.96,-81.03"
         style="fill:#cecdcc;fill-opacity:1;fill-rule:nonzero;stroke:none"
         id="path160" />
      <path
         d="m 2680.7,1320.18 h -37.13 l 4.3,16.5 -9.48,110.43 h 31.42 l 5.15,-60.08 -0.23,-0.05 c -3.2,-0.64 -3.59,-5.13 -0.5,-5.77 l 1.26,-0.26 5.21,-60.77"
         style="fill:#cecdcc;fill-opacity:1;fill-rule:nonzero;stroke:none"
         id="path162" />
      <path
         d="m 2696.41,2204.62 -16.9,196.86 66.49,254.94 h 66.08 l -92.58,-354.94 5.48,-63.77 c -10.16,-10.45 -19.71,-21.5 -28.57,-33.09"
         style="fill:#869fd4;fill-opacity:1;fill-rule:nonzero;stroke:none"
         id="path164" />
      <path
         d="m 2708.28,1786.69 c -19.29,19.4 -35.77,41.56 -48.89,65.9 l 50.59,193.96 -13.57,158.07 c 8.86,11.59 18.41,22.64 28.57,33.09 l 25,-291.17 -41.7,-159.85"
         style="fill:#cecdcc;fill-opacity:1;fill-rule:nonzero;stroke:none"
         id="path166" />
      <path
         d="m 2668.05,1160.71 c -4.85,9.51 -7.15,20.64 -6.11,32.53 1.65,18.93 11.42,35.92 25.58,47.54 l 0.35,-4.1 -19.82,-75.97"
         style="fill:#395eb4;fill-opacity:1;fill-rule:nonzero;stroke:none"
         id="path168" />
      <path
         d="m 2675.49,1380.95 -1.26,0.26 c -3.09,0.64 -2.7,5.13 0.5,5.77 l 0.23,0.05 0.53,-6.08"
         style="fill:#182124;fill-opacity:1;fill-rule:nonzero;stroke:none"
         id="path170" />
      <path
         d="m 2679.51,2401.48 92.57,354.93 H 1606.84 l -92.57,-354.93 30.47,-354.93 -92.58,-354.94 30.47,-354.93 -92.58,-354.93 h 1165.24 l 92.58,354.93 -30.47,354.93 92.58,354.94 -30.47,354.93"
         style="fill:#4870c0;fill-opacity:1;fill-rule:nonzero;stroke:none"
         id="path172" />
      <path
         d="m 2647.87,1336.68 h -886.22 c -4.14,124.27 -12.11,262.84 -17.9,354.93 h 873.65 l 30.47,-354.93"
         style="fill:#c7d9f2;fill-opacity:1;fill-rule:nonzero;stroke:none"
         id="path174" />
      <path
         d="m 2709.98,2046.55 h -219.15 c 33.88,31.03 53.9,65.55 53.9,127.32 v 64.04 c 0,6.87 -4.16,12.38 -9.84,14.76 v 20.47 0 c 0,9.24 -7.51,16.02 -16.13,16.02 -1.65,0 -3.33,-0.24 -5.02,-0.77 -10,-3.13 -22.83,-5.01 -36.8,-5.01 -20.57,0 -38.64,4.08 -48.93,10.21 -2.82,1.69 -5.92,2.53 -9.02,2.53 -1.08,0 -2.16,-0.1 -3.23,-0.31 -1.99,-0.38 -3.95,-1.12 -5.79,-2.22 v 0 c -10.28,-6.13 -28.35,-10.21 -48.93,-10.21 -0.1,0 -0.21,0 -0.32,0 -13.85,0.03 -26.54,1.91 -36.48,5.01 v 0 c -1.68,0.53 -3.37,0.77 -5.02,0.77 -8.62,0 -16.12,-6.78 -16.12,-16.02 v -10.84 h -452.91 c -21.21,0 -39.99,-10.4 -51.51,-26.38 -11.47,13.27 -23.09,26.39 -34.96,39.3 l -8.66,-7.56 c -9.1,55.67 -21.94,70.17 -21.94,70.17 0,0 -46.41,12.77 -95.86,17.35 -3.43,7.87 -5.96,18.72 -0.54,28.36 -6.64,1.93 -16.54,3.08 -28.25,3.63 -1,4.69 -1.53,9.49 -1.68,14.31 H 2679.5 l 92.58,354.93 -92.57,-354.93 30.47,-354.93 m -884.75,0 h -63.74 c 1.23,23.87 1.96,45.86 2.26,66.1 13.27,-14.39 26.7,-28.65 40.23,-42.82 5.03,-9.43 12.36,-17.44 21.25,-23.28"
         style="fill:#c7d9f2;fill-opacity:1;fill-rule:nonzero;stroke:none"
         id="path176" />
      <path
         d="m 1583.73,2667.81 v 0 l 14.19,54.41 v 0 l -14.19,-54.41"
         style="fill:#ffffff;fill-opacity:1;fill-rule:nonzero;stroke:none"
         id="path178" />
      <path
         d="m 1597.92,2722.22 8.92,34.19 -8.92,-34.19 v 0"
         style="fill:#fafbfb;fill-opacity:1;fill-rule:nonzero;stroke:none"
         id="path180" />
      <path
         d="M 2679.5,2401.48 H 1606.79 c -0.33,10.07 0.97,20.23 3.12,29.59 32.26,10.43 57.78,41.25 59.08,79.47 1.92,56.15 -23.62,142.35 -85.26,157.27 l 23.11,88.6 h 1165.24 l -92.58,-354.93"
         style="fill:#e4eef9;fill-opacity:1;fill-rule:nonzero;stroke:none"
         id="path182" />
      <path
         d="m 2617.4,1691.61 h -873.65 c -3.97,63.02 -6.91,104.27 -6.91,104.27 h -118.97 v 0 h -138.52 c 77.54,0 187.61,0 257.49,0 13.6,100.72 21.16,183.23 24.65,250.67 h 63.74 c 0.96,-0.63 1.94,-1.24 2.93,-1.81 2.58,-2.66 5.16,-5.31 7.75,-7.96 l 3.98,-4.04 c 1.57,-1.5 3.05,-3.06 4.73,-4.44 3.32,-2.79 6.64,-5.56 10.29,-7.92 7.11,-4.95 14.92,-8.81 22.98,-11.72 11.33,-4.06 23.23,-6.09 35.08,-6.09 5.05,0 10.09,0.37 15.07,1.11 8.31,1.28 16.52,3.39 24.19,6.71 3.89,1.54 7.55,3.54 11.18,5.54 1.83,0.97 3.51,2.18 5.25,3.28 1.51,1.02 3.92,2.59 4.48,3.11 l 17.61,13.85 h 384.55 c 1.14,0 2.25,0.11 3.37,0.17 5.56,-4.61 11.34,-9.2 17.48,-13.84 7.34,-5.56 15.08,-11.21 23.18,-17.08 2.81,-2.04 6.16,-3.07 9.5,-3.07 3.35,0 6.69,1.03 9.51,3.07 19.85,14.4 37.52,27.42 52.49,41.13 h 219.15 l -50.59,-193.96 -41.99,-160.98"
         style="fill:#e4eef9;fill-opacity:1;fill-rule:nonzero;stroke:none"
         id="path184" />
      <path
         d="m 2555.29,981.75 h -803.98 c 6.36,62.59 10.83,116.46 12.18,154.12 1.84,51.61 0.74,123.43 -1.84,200.81 h 886.22 l -4.3,-16.5 -88.28,-338.43 m -1005.63,0 h -84.29 c 19,63.31 34.07,117.73 42.28,155.44 0.52,2.38 1.04,4.81 1.57,7.29 0,-0.03 0.01,-0.07 0.01,-0.11 8.39,39.45 18.16,91.81 28.33,149.73 0.97,5.53 1.94,11.08 2.92,16.7 3.03,-71.33 5.51,-138.13 6.77,-190.11 0.84,-34.46 1.64,-82.77 2.41,-138.94"
         style="fill:#e4eef9;fill-opacity:1;fill-rule:nonzero;stroke:none"
         id="path186" />
      <path
         d="m 2490.83,2046.55 h -54.23 c 60.13,43.94 98.29,77.27 98.29,162.56 v 43.56 c 5.68,-2.38 9.84,-7.89 9.84,-14.76 v -64.04 c 0,-61.77 -20.02,-96.29 -53.9,-127.32 m -89.44,0 h -397.87 c 9.08,7.74 18.14,16.17 27.13,24.86 h 334.81 c 1.14,0 2.27,0.03 3.39,0.08 9.93,-8.22 20.82,-16.38 32.54,-24.94 m -574.99,0 h -1.17 c -8.89,5.84 -16.22,13.85 -21.25,23.28 7.45,-7.79 14.92,-15.55 22.42,-23.28"
         style="fill:#9cacd3;fill-opacity:1;fill-rule:nonzero;stroke:none"
         id="path188" />
      <path
         d="m 2428.83,2002.35 c -3.34,0 -6.69,1.03 -9.5,3.07 -8.1,5.87 -15.84,11.52 -23.18,17.08 -6.14,4.64 -11.92,9.23 -17.48,13.84 -1.12,-0.06 -2.23,-0.17 -3.37,-0.17 h -384.55 l 4.79,3.77 c 2.67,2.13 5.32,4.34 7.98,6.61 h 397.87 c 2.66,-1.94 5.35,-3.9 8.09,-5.89 2.82,-2.05 6.17,-3.07 9.51,-3.07 v 0 0 c 3.35,0 6.69,1.03 9.51,3.07 2.74,1.99 5.44,3.95 8.1,5.89 h 54.23 c -14.97,-13.71 -32.64,-26.73 -52.49,-41.13 -2.82,-2.04 -6.16,-3.07 -9.51,-3.07 m -600.67,42.39 c -0.99,0.57 -1.97,1.18 -2.93,1.81 h 1.17 c 0.59,-0.61 1.18,-1.21 1.76,-1.81"
         style="fill:#b5bccf;fill-opacity:1;fill-rule:nonzero;stroke:none"
         id="path190" />
      <path
         d="m 2365.46,2071.41 h -515.27 c -35.05,0 -63.47,28.41 -63.47,63.46 v 63.97 c 0,35.05 28.42,63.46 63.47,63.46 h 515.27 c 35.05,0 63.47,-28.41 63.47,-63.46 v -63.97 c 0,-35.05 -28.42,-63.46 -63.47,-63.46"
         style="fill:#4870c0;fill-opacity:1;fill-rule:nonzero;stroke:none"
         id="path192" />
      <path
         d="m 2476.94,2283.38 c -20.57,0 -38.64,4.08 -48.93,10.21 -5.65,3.37 -12.39,3.37 -18.04,0 -10.28,-6.13 -28.35,-10.21 -48.93,-10.21 -13.97,0 -26.79,1.88 -36.8,5.01 -10.49,3.28 -21.14,-4.25 -21.14,-15.25 v -64.03 c 0,-89.05 41.6,-121.46 106.38,-168.45 5.64,-4.09 13.38,-4.09 19.02,0 64.79,46.99 106.39,79.4 106.39,168.45 v 64.03 c 0,11 -10.65,18.53 -21.15,15.25 -10,-3.13 -22.83,-5.01 -36.8,-5.01"
         style="fill:#4870c0;fill-opacity:1;fill-rule:nonzero;stroke:none"
         id="path194" />
      <path
         d="m 2418.99,2037.59 v 0 258.53 c -1.08,0 -2.16,-0.1 -3.23,-0.31 1.07,0.21 2.15,0.31 3.23,0.31 3.1,0 6.2,-0.84 9.02,-2.53 10.29,-6.13 28.36,-10.21 48.93,-10.21 13.97,0 26.8,1.88 36.8,5.01 1.69,0.53 3.37,0.77 5.02,0.77 8.62,0 16.13,-6.78 16.13,-16.02 v -64.03 c 0,-89.05 -41.6,-121.46 -106.39,-168.45 -2.82,-2.04 -6.16,-3.07 -9.51,-3.07"
         style="fill:#799bd7;fill-opacity:1;fill-rule:nonzero;stroke:none"
         id="path196" />
      <path
         d="m 2418.99,2037.59 c -3.34,0 -6.69,1.02 -9.51,3.07 -2.74,1.99 -5.43,3.95 -8.09,5.89 v 0 c 2.66,-1.94 5.35,-3.9 8.09,-5.89 2.82,-2.04 6.17,-3.07 9.51,-3.07 v 0"
         style="fill:#c5c9d8;fill-opacity:1;fill-rule:nonzero;stroke:none"
         id="path198" />
      <path
         d="m 2360.72,2283.38 c -13.85,0.03 -26.55,1.91 -36.48,5.01 9.94,-3.1 22.63,-4.98 36.48,-5.01"
         style="fill:#d4e1f5;fill-opacity:1;fill-rule:nonzero;stroke:none"
         id="path200" />
      <path
         d="m 2409.97,2293.59 c 1.84,1.1 3.8,1.84 5.79,2.22 -1.99,-0.38 -3.95,-1.12 -5.79,-2.22"
         style="fill:#d4e1f5;fill-opacity:1;fill-rule:nonzero;stroke:none"
         id="path202" />
      <path
         d="m 2418.99,2037.59 c -3.34,0 -6.69,1.03 -9.51,3.07 -14.83,10.76 -28.44,20.75 -40.63,30.83 -41.02,33.97 -65.75,68.96 -65.75,137.62 v 64.03 c 0,9.24 7.5,16.02 16.12,16.02 1.65,0 3.34,-0.24 5.02,-0.77 v 0 c 9.93,-3.1 22.63,-4.98 36.48,-5.01 0.11,0 0.22,0 0.32,0 20.58,0 38.65,4.08 48.93,10.21 v 0 c 1.84,1.1 3.8,1.84 5.79,2.22 1.07,0.21 2.15,0.31 3.23,0.31 v -258.53"
         style="fill:#96b3e2;fill-opacity:1;fill-rule:nonzero;stroke:none"
         id="path204" />
      <path
         d="m 2511.87,2226.58 c -41.87,-17.32 -77.7,-42.59 -101.22,-71.33 -16.4,12.99 -38.89,22.01 -65.27,26.14 l -3.09,0.48 v -15.28 l 1.76,-0.64 c 26.52,-9.71 48.93,-26.92 64.79,-49.77 l 2.5,-3.6 2.07,3.86 c 22.95,42.72 58.72,78.51 100.74,100.77 l 1.42,0.75 v 10.16 l -3.7,-1.54"
         style="fill:#1d2a30;fill-opacity:1;fill-rule:nonzero;stroke:none"
         id="path206" />
      <path
         d="m 2751.51,2656.6 h -44.21 c -24.52,0 -42.65,19.87 -40.51,44.4 l 3.87,44.2 c 2.15,24.52 23.76,44.39 48.28,44.39 h 44.2 c 24.52,0 42.66,-19.87 40.51,-44.39 l -3.86,-44.2 c -2.15,-24.53 -23.76,-44.4 -48.28,-44.4"
         style="fill:#4870c0;fill-opacity:1;fill-rule:nonzero;stroke:none"
         id="path208" />
      <path
         d="m 2769.88,2745.3 -9.59,10.52 -24.15,-22.21 -20.26,22.21 -11.44,-10.52 20.27,-22.21 -24.15,-22.2 9.6,-10.51 24.14,22.2 20.26,-22.2 11.44,10.51 -20.26,22.2 24.14,22.21"
         style="fill:#ffffff;fill-opacity:1;fill-rule:nonzero;stroke:none"
         id="path210" />
      <path
         d="m 1763.72,2275.22 c 25.63,-27.87 50.11,-56.74 74.29,-85.88 24.21,-29.11 47.83,-58.74 71.15,-88.62 1.02,-1.31 0.61,-0.78 0.85,-1.16 l 0.28,-0.59 0.7,-1.03 1.8,-1.97 c 1.42,-1.27 3.36,-2.24 5.53,-2.63 1.06,-0.17 2.2,-0.32 3.35,-0.2 l 1.82,0.13 0.92,0.21 c 0.17,0.08 0.25,0.07 0.33,0.07 0.16,-0.01 0.33,-0.02 1.24,0.52 l 25.04,13.58 c 33.61,17.78 67.47,35.18 102.51,50.79 l 29.28,-36.26 c -28.22,-25.97 -57.62,-58.44 -87.27,-82.24 l -22.4,-17.62 c -0.56,-0.52 -2.97,-2.09 -4.48,-3.11 -1.74,-1.1 -3.42,-2.31 -5.25,-3.28 -3.63,-2 -7.29,-4 -11.18,-5.54 -7.67,-3.32 -15.88,-5.43 -24.19,-6.71 -16.67,-2.48 -33.99,-0.81 -50.15,4.98 -8.06,2.91 -15.87,6.77 -22.98,11.72 -3.65,2.36 -6.97,5.13 -10.29,7.92 -1.68,1.38 -3.16,2.94 -4.73,4.44 l -3.98,4.04 c -26.47,27.14 -52.63,54.54 -78.21,82.45 -25.61,27.9 -50.9,56.06 -75.06,85.22 l 81.08,70.77"
         style="fill:#d04648;fill-opacity:1;fill-rule:nonzero;stroke:none"
         id="path212" />
      <path
         d="m 2039.9,2136.34 23.32,74.88 61.36,-30.58 c 0,0 -8.94,-54.63 -53.61,-64.11 l -31.07,19.81"
         style="fill:#d04648;fill-opacity:1;fill-rule:nonzero;stroke:none"
         id="path214" />
      <path
         d="m 2087.83,2231.97 55.34,-15.23 -18.59,-36.1 -61.36,30.58 24.61,20.75"
         style="fill:#d04648;fill-opacity:1;fill-rule:nonzero;stroke:none"
         id="path216" />
      <path
         d="m 1440.94,2254.82 c -6.68,-31.81 -14.84,-63.27 -23.39,-94.63 -8.51,-31.37 -17.79,-62.55 -27.46,-93.64 l -3.6,-11.66 -1.8,-5.84 c -0.38,-1.27 -0.62,-1.58 -0.97,-2.44 -1.1,-2.95 -1.76,-6.15 -1.89,-9.51 -0.17,-6.66 1.41,-14.07 5.76,-20.5 0.36,-1.04 3.82,-4.66 6.5,-7.58 l 8.31,-9.03 16.36,-18.33 c 10.79,-12.37 21.52,-24.78 31.72,-37.83 l -34.85,-40.33 c -14.38,8.19 -28.23,17.01 -42.03,25.88 l -20.52,13.53 -10.13,6.9 c -3.45,2.41 -6.23,4.01 -11.74,8.58 -19.02,16.13 -33.23,39.03 -38.44,64.47 -2.66,12.68 -3.31,25.92 -1.83,39.01 0.39,3.13 0.98,6.8 1.46,9.49 l 1.06,6.01 2.13,12.02 c 5.6,32.07 11.59,64.06 18.34,95.85 6.71,31.8 13.82,63.51 22.41,94.86 l 104.6,-25.28"
         style="fill:#d04648;fill-opacity:1;fill-rule:nonzero;stroke:none"
         id="path218" />
      <path
         d="m 1416.25,1946.7 41.26,21.09 18.2,-70.12 c 0,0 -33.12,-12.7 -58.74,3.6 l -0.72,45.43"
         style="fill:#d04648;fill-opacity:1;fill-rule:nonzero;stroke:none"
         id="path220" />
      <path
         d="m 1514.52,1990.23 1.87,-64.34 -46.07,-30.13 -15.98,70.67 60.18,23.8"
         style="fill:#d04648;fill-opacity:1;fill-rule:nonzero;stroke:none"
         id="path222" />
      <path
         d="m 1649.42,2585.47 c 1.01,-4.96 4.45,-8.44 7.69,-7.78 3.24,0.65 5.05,5.21 4.04,10.16 -1,4.96 -4.45,8.44 -7.68,7.78 -3.25,-0.65 -5.05,-5.21 -4.05,-10.16"
         style="fill:#1d2a30;fill-opacity:1;fill-rule:nonzero;stroke:none"
         id="path224" />
      <path
         d="m 1653.42,2576.94 c 0,0 17.08,-26.31 32.29,-37.58 -7.11,-9.97 -22.78,-9.25 -22.78,-9.25 l -9.51,46.83"
         style="fill:#bb2024;fill-opacity:1;fill-rule:nonzero;stroke:none"
         id="path226" />
      <path
         d="m 1625.68,2609.3 -2.01,0.79 c -1.21,1.12 -1.28,2.99 -0.16,4.2 11.15,12.07 24.68,9.92 25.26,9.83 1.62,-0.28 2.7,-1.82 2.43,-3.43 -0.28,-1.62 -1.83,-2.69 -3.41,-2.43 -0.45,0.07 -11.03,1.62 -19.93,-8.01 l -2.18,-0.95"
         style="fill:#1d2a30;fill-opacity:1;fill-rule:nonzero;stroke:none"
         id="path228" />
      <path
         d="m 1505.21,2515.76 c 11.03,-45.87 22.04,-129.92 -17.33,-160.53 0,0 15.38,-46.52 119.95,-46.52 114.99,0 54.95,29.97 54.95,29.97 -62.75,12.21 -61.13,66.72 -50.2,102.35 l -107.37,74.73"
         style="fill:#d04648;fill-opacity:1;fill-rule:nonzero;stroke:none"
         id="path230" />
      <path
         d="m 1475.63,2346.73 c -6.85,12.74 -14.39,27.33 1.21,31.9 17.17,5.02 127.48,14.34 159.88,4.91 -9.95,-17.71 6.9,-39.48 6.9,-39.48 l -167.99,2.67"
         style="fill:#1d2a30;fill-opacity:1;fill-rule:nonzero;stroke:none"
         id="path232" />
      <path
         d="m 1566.96,200.969 h 72.15 l 7.18,145.199 h -72.15 l -7.18,-145.199"
         style="fill:#d04648;fill-opacity:1;fill-rule:nonzero;stroke:none"
         id="path234" />
      <path
         d="m 1109.13,220.969 73.08,-3.867 44.4,143.058 -73.08,3.86 -44.4,-143.051"
         style="fill:#d04648;fill-opacity:1;fill-rule:nonzero;stroke:none"
         id="path236" />
      <path
         d="m 1179.97,222.879 -68.85,14.91 c -2.5,0.539 -5.05,-0.73 -6.12,-3.051 l -23.9,-51.859 c -2.48,-5.379 0.8,-11.688 6.61,-12.84 24.13,-4.789 36.11,-5.91 66.39,-12.457 18.62,-4.043 60.67,-14.281 86.39,-19.852 25.16,-5.449 34.59,19.141 24.56,23.719 -44.98,20.551 -63.77,38.653 -75.95,55.512 -2.19,3.039 -5.47,5.129 -9.13,5.918"
         style="fill:#1d2a30;fill-opacity:1;fill-rule:nonzero;stroke:none"
         id="path238" />
      <path
         d="m 1635.29,208.23 h -68.47 c -2.57,0 -4.78,-1.781 -5.34,-4.281 l -12.39,-55.738 c -1.28,-5.77 3.11,-11.25 9.03,-11.152 24.69,0.421 60.39,1.871 91.43,1.871 36.3,0 67.65,-1.981 110.22,-1.981 25.74,0 32.89,26.02 22.11,28.379 -49.05,10.731 -89.1,11.883 -131.48,38.012 -4.61,2.84 -9.7,4.89 -15.11,4.89"
         style="fill:#1d2a30;fill-opacity:1;fill-rule:nonzero;stroke:none"
         id="path240" />
      <path
         d="M 1357.25,2334.03 C 1302.8,2308.14 1288,2151.19 1288,2151.19 l 134.7,-62.24 c 0,0 33.43,49.25 35.99,126.69 2.69,81.14 -45.77,144.86 -101.44,118.39"
         style="fill:#1d2a30;fill-opacity:1;fill-rule:nonzero;stroke:none"
         id="path242" />
      <path
         d="m 1733.12,2337.83 c 0,0 66.74,-75.38 3.72,-541.95 -101.05,0 -286.2,0 -335.37,0 -2.31,51.48 30.04,302.61 -19.61,545.18 0,0 57.48,11.54 112.26,14.17 42.85,2.07 104.89,3.44 142.56,0 49.67,-4.53 96.44,-17.4 96.44,-17.4"
         style="fill:#4870c0;fill-opacity:1;fill-rule:nonzero;stroke:none"
         id="path244" />
      <g
         id="g246">
        <g
           id="g248"
           clip-path="url(#clipPath252)">
          <path
             d="m 1381.86,1795.88 h 382.191 v 561.449 H 1381.86 Z"
             style="fill:#b1c7eb;fill-opacity:1;fill-rule:nonzero;stroke:none"
             id="path254" />
        </g>
      </g>
      <path
         d="m 1763.9,2141.78 c -0.11,19.65 -0.64,37.43 -1.49,53.48 l 0.03,-0.03 c 0.84,-16.04 1.36,-33.8 1.46,-53.45"
         style="fill:#a4383a;fill-opacity:1;fill-rule:nonzero;stroke:none"
         id="path256" />
      <path
         d="m 1760.9,2036.73 c -27.31,28.17 -73.21,92.55 -66.44,195.24 l 66.7,-35.63 1.25,-1.08 c 0.85,-16.05 1.38,-33.83 1.49,-53.48 0.15,-30.31 -0.72,-65.12 -3,-105.05"
         style="fill:#889dd2;fill-opacity:1;fill-rule:nonzero;stroke:none"
         id="path258" />
      <path
         d="m 1642.59,271.289 v 0 l 0.04,0.813 -0.04,-0.813 m -72.15,0 h -0.03 l 0.63,12.699 h 0.03 l -0.63,-12.699"
         style="fill:#cecdcc;fill-opacity:1;fill-rule:nonzero;stroke:none"
         id="path260" />
      <path
         d="m 1642.59,271.289 h -72.15 l 0.63,12.699 h 72.14 l -0.58,-11.886 -0.04,-0.813"
         style="fill:#a4383a;fill-opacity:1;fill-rule:nonzero;stroke:none"
         id="path262" />
      <path
         d="m 1130.64,290.25 h -0.06 l 6.07,19.531 0.04,-0.011 -6.05,-19.52"
         style="fill:#cecdcc;fill-opacity:1;fill-rule:nonzero;stroke:none"
         id="path264" />
      <path
         d="m 1203.69,286.391 -73.05,3.859 6.05,19.52 69.58,-15.059 -2.58,-8.32"
         style="fill:#a4383a;fill-opacity:1;fill-rule:nonzero;stroke:none"
         id="path266" />
      <path
         d="m 1481.99,2562.38 c 16.11,-60.11 22.48,-96.11 59.57,-121.1 55.79,-37.6 125.26,5.55 127.43,69.26 1.96,57.34 -24.71,146 -89.21,158.12 -63.55,11.93 -113.9,-46.18 -97.79,-106.28"
         style="fill:#d04648;fill-opacity:1;fill-rule:nonzero;stroke:none"
         id="path268" />
      <path
         d="m 1617.87,1795.88 c 0,0 -71.16,-479.17 -110.22,-658.69 -42.78,-196.581 -272.16,-846.979 -272.16,-846.979 l -112.24,24.301 c 0,0 143.83,530.027 179.74,804.858 14.01,107.25 30.93,280.12 52.32,424.27 20.72,139.59 46.16,252.24 46.16,252.24 h 216.4"
         style="fill:#1d2a30;fill-opacity:1;fill-rule:nonzero;stroke:none"
         id="path270" />
      <path
         d="m 1262.36,327.691 -20.91,-40.601 -126.29,27.34 10.65,37.961 136.55,-24.7"
         style="fill:#4870c0;fill-opacity:1;fill-rule:nonzero;stroke:none"
         id="path272" />
      <path
         d="m 1241.45,287.09 -35.18,7.621 -69.58,15.059 -21.53,4.66 10.65,37.961 136.55,-24.7 -20.91,-40.601"
         style="fill:#b4caec;fill-opacity:1;fill-rule:nonzero;stroke:none"
         id="path274" />
      <path
         d="m 1509.23,1144.37 c 0,0.04 -0.01,0.08 -0.01,0.11 8.4,39.46 18.17,91.77 28.34,149.62 -10.17,-57.92 -19.94,-110.28 -28.33,-149.73"
         style="fill:#505763;fill-opacity:1;fill-rule:nonzero;stroke:none"
         id="path276" />
      <path
         d="m 1509.22,1144.48 c -7.53,120.15 -14.37,326.53 19.08,425.37 4.08,-80.85 8.53,-173.2 12.18,-259.04 -0.98,-5.62 -1.95,-11.18 -2.92,-16.71 -10.17,-57.85 -19.94,-110.16 -28.34,-149.62"
         style="fill:#141414;fill-opacity:1;fill-rule:nonzero;stroke:none"
         id="path278" />
      <path
         d="m 1736.84,1795.88 c 0,0 33.47,-468.8 26.65,-660.01 -7.1,-198.89 -101.4,-850.089 -101.4,-850.089 h -106.22 c 0,0 -3.89,639.59 -8.62,834.909 -5.15,212.94 -30.86,675.19 -30.86,675.19 h 220.45"
         style="fill:#1d2a30;fill-opacity:1;fill-rule:nonzero;stroke:none"
         id="path280" />
      <path
         d="m 1682.53,328.09 -5.99,-44.102 h -129.21 l -3.49,39.364 138.69,4.738"
         style="fill:#4870c0;fill-opacity:1;fill-rule:nonzero;stroke:none"
         id="path282" />
      <path
         d="m 1676.54,283.988 h -129.21 l -3.49,39.364 138.69,4.738 -1.23,-9.039 -0.34,-2.5 -4.42,-32.563"
         style="fill:#b4caec;fill-opacity:1;fill-rule:nonzero;stroke:none"
         id="path284" />
      <path
         d="m 1693.99,2250 c 0,-125.81 66.95,-177.6 66.95,-177.6 l 108.82,106.38 c 0,0 -37,63.75 -87.89,122.27 -62.86,72.29 -87.88,29.86 -87.88,-51.05"
         style="fill:#1d2a30;fill-opacity:1;fill-rule:nonzero;stroke:none"
         id="path286" />
      <path
         d="m 1610.4,2431.25 -0.33,0.42 c 0,0 0.35,22.5 26.91,30.11 18.2,5.21 25.45,18.27 28.21,25.98 -8.36,-27.2 -29.46,-48.14 -54.79,-56.51"
         style="fill:#a4383a;fill-opacity:1;fill-rule:nonzero;stroke:none"
         id="path288" />
      <path
         d="m 1636.98,2681.84 c 22.42,28.27 -12.08,29.62 -12.08,29.62 8.96,33.74 -31.38,15.58 -31.38,15.58 -24.22,33.39 -37.88,-7.25 -37.88,-7.25 -25.12,28.29 -29.74,-17.93 -29.74,-17.93 -25.19,35.87 -38.02,-15.86 -38.02,-15.86 -23.2,37.25 -37.4,-11.29 -37.4,-11.29 -47.89,17.15 -25.13,-32.63 -25.13,-32.63 -40.9,-1.15 -8.09,-32.78 -8.09,-32.78 -48.98,-0.12 -5.79,-28.17 -5.79,-28.17 -38.9,-25.52 9.93,-32.39 9.93,-32.39 -31.73,-49.63 22.77,-31.22 22.77,-31.22 -22.08,-49.12 26.87,-27.48 26.87,-27.48 -3.17,-47.4 24.2,-34.5 37.36,-25.72 2.55,-9.54 7.28,-19.66 16.08,-20.81 17.08,-2.23 20.4,30.01 20.4,30.01 0,0 15.86,-12.33 29.14,-5.65 13.29,6.68 8.28,23.58 8.28,23.58 0,0 10.18,-7.58 19.49,-0.34 5.71,4.43 5.73,36.26 -1.53,47.45 l 26.03,10.18 c 0,0 19.32,2.73 10.69,28.2 -8.63,25.46 -1.32,45.56 -1.32,45.56 29.39,13.78 5.28,30.33 5.28,30.33 33.98,22.02 -3.96,29.01 -3.96,29.01"
         style="fill:#1d2a30;fill-opacity:1;fill-rule:nonzero;stroke:none"
         id="path290" />
      <path
         d="m 1584.25,2559.86 c 4.09,-15.78 14.46,-29.35 25.31,-37.42 16.31,-12.14 28.5,-0.19 27.34,18.28 -1.04,16.62 -10.79,42.96 -28.79,47.89 -17.73,4.85 -28.53,-10.71 -23.86,-28.75"
         style="fill:#d04648;fill-opacity:1;fill-rule:nonzero;stroke:none"
         id="path292" />
    </g>
  </g>
</svg>
