<?xml version="1.0" encoding="UTF-8" standalone="no"?>
<!-- Created with Inkscape (http://www.inkscape.org/) -->

<svg
   version="1.1"
   id="svg2"
   width="4000"
   height="2666.6667"
   viewBox="0 0 4000 2666.6667"
   sodipodi:docname="10808.eps"
   xmlns:inkscape="http://www.inkscape.org/namespaces/inkscape"
   xmlns:sodipodi="http://sodipodi.sourceforge.net/DTD/sodipodi-0.dtd"
   xmlns="http://www.w3.org/2000/svg"
   xmlns:svg="http://www.w3.org/2000/svg">
  <defs
     id="defs6" />
  <sodipodi:namedview
     id="namedview4"
     pagecolor="#ffffff"
     bordercolor="#000000"
     borderopacity="0.25"
     inkscape:showpageshadow="2"
     inkscape:pageopacity="0.0"
     inkscape:pagecheckerboard="0"
     inkscape:deskcolor="#d1d1d1" />
  <g
     id="g8"
     inkscape:groupmode="layer"
     inkscape:label="ink_ext_XXXXXX"
     transform="matrix(1.3333333,0,0,-1.3333333,0,2666.6667)">
    <g
       id="g10"
       transform="scale(0.1)">
      <path
         d="M 0,0 H 30000 V 20000 H 0 Z"
         style="fill:#ffffff;fill-opacity:1;fill-rule:nonzero;stroke:none"
         id="path12" />
      <path
         d="m 2567.24,5852.7 c 0,0 -1462.54,2747 0,5340.2 1462.53,2593.2 4418.71,2035.2 5974.6,1280.2 846.99,-411 1850.76,72.9 3141.76,556.9 1080.6,405 2362.4,810.1 3922,690.4 3422.9,-262.6 3329.6,-1838.2 6659.2,-1411.5 3329.6,426.8 5787.9,172 6628.1,-2080.4 C 29733,7976 28395,5852.7 28395,5852.7 H 2567.24"
         style="fill:#ebf3fa;fill-opacity:1;fill-rule:nonzero;stroke:none"
         id="path14" />
      <path
         d="m 10653.4,9424.5 c -241.2,569.9 -800.15,1303.1 -806.61,1476.9 -0.06,1.7 -0.12,3.4 -0.15,5.1 -1.41,67.3 53.58,111.7 110.19,111.7 29.05,0 58.47,-11.7 80.97,-37.9 499.3,-581.5 615.6,-1555.8 615.6,-1555.8"
         style="fill:#dbe7fb;fill-opacity:1;fill-rule:nonzero;stroke:none"
         id="path16" />
      <path
         d="m 10714.1,9145.6 c -496,626.9 -1443.69,1347.9 -1511.39,1562.1 -25.4,80.3 -15.23,131.7 7.4,164.7 21.66,31.5 57.08,48 93.25,48 21.84,0 43.96,-6 63.47,-18.4 849.77,-538.6 1347.27,-1756.4 1347.27,-1756.4"
         style="fill:#dbe7fb;fill-opacity:1;fill-rule:nonzero;stroke:none"
         id="path18" />
      <path
         d="m 5137.35,6416.1 c -546.79,289.8 -1443.1,505.7 -1557.81,636.4 -1.15,1.3 -2.27,2.6 -3.37,3.9 -61.36,72.3 -7.19,179.7 81.42,179.7 6.59,0 13.39,-0.6 20.34,-1.8 754.23,-135.9 1459.42,-818.2 1459.42,-818.2"
         style="fill:#dbe7fb;fill-opacity:1;fill-rule:nonzero;stroke:none"
         id="path20" />
      <path
         d="m 5360.47,6238 c -780.35,173.2 -1970.52,134.3 -2158.23,257.7 -70.4,46.3 -94.98,92.6 -98.22,132.4 -4.96,61.2 41.94,114.7 102.87,121.9 85.91,10.2 172.82,14.9 260.21,14.9 928.72,0 1893.37,-526.9 1893.37,-526.9"
         style="fill:#dbe7fb;fill-opacity:1;fill-rule:nonzero;stroke:none"
         id="path22" />
      <path
         d="m 5493.54,6120.2 -86.66,46.3 c 0,0 233.81,640.1 169.91,1057.1 -2.96,15.5 -7.3,37.8 -12.85,65 h -0.01 c -15.18,60.9 -24.6,105.4 -29.69,137.1 -43.5,189.7 -111.61,439.5 -180.62,504.6 0,0 13.32,11.7 29.08,37.1 -9.27,-11.9 -18.95,-24.2 -29.08,-37.1 -100.11,-127.8 -303.34,-177.4 -535.27,-177.4 -306.91,0 -664.04,86.9 -898.71,194.7 -412.01,189.2 -195.1,267.5 83.84,411.4 88.33,45.6 196.41,60.1 308.04,60.1 98.5,0 199.76,-11.3 292.62,-22.6 92.89,-11.4 177.37,-22.7 242.32,-22.7 28.91,0 53.97,2.3 74.16,7.7 162.24,44.2 -30.49,170.8 -324.06,215.6 -23.95,3.7 -47.34,5.3 -70.39,5.3 -113.82,0 -218.89,-40.5 -337.9,-81 -119.02,-40.4 -252,-80.9 -421.71,-80.9 -47.3,0 -97.46,3.1 -150.95,10.3 -476.21,63.8 -627.67,1022.6 -627.67,1022.6 144.43,-84.5 363.65,-117.9 556.92,-117.9 206.18,0 382.83,38 407.58,92.6 47.95,105.8 -808.78,293.1 -934.17,357.3 -125.38,64.2 -296.51,384.5 -28.65,883.5 107,199.3 308.47,259.1 511.87,259.1 305.76,0 615.87,-135.2 615.87,-135.2 0,0 393.72,-1073.5 566.06,-1136.9 5.07,-1.9 9.69,-2.8 13.91,-2.8 139.29,0.1 -171.32,986.3 -171.32,986.3 351.61,-46.6 1130.06,-671.6 1130.06,-671.6 0,0 -307.92,-1074.2 -125.28,-1093.2 1.75,-0.2 3.48,-0.3 5.2,-0.3 178.22,0 218.92,965.3 218.92,965.3 309.6,-177.1 530.03,-637.5 530.03,-637.5 C 6526.36,8499.7 5586.2,8227 5586.2,8227 c 0,0 -98.68,-374.6 33.81,-861.3 0,0 232.55,-629 -126.47,-1245.5"
         style="fill:#ccdbfd;fill-opacity:1;fill-rule:nonzero;stroke:none"
         id="path24" />
      <path
         d="m 20490.4,7941.1 c -440,0 -925,104.9 -1050,371.4 v 0 c -14.4,-8.5 -29.9,-22.1 -46.3,-39.8 -7.6,230 -21.7,411.1 -42.3,543.4 -32.6,208.3 -87.9,371.8 -166,490.6 -107.4,166 -247,289.3 -418.6,369.8 -25.4,11.9 -51.5,22.9 -78.4,33 18.3,60.4 46.1,122.6 85,186.3 0,0 343.1,430.7 711.4,542 0,0 -194.4,-1044.6 2.2,-1068.8 2,-0.2 3.9,-0.3 5.8,-0.3 189.5,0 126.9,1179.9 126.9,1179.9 0,0 899.1,434.7 1305.8,434.7 15.6,0 30.6,-0.6 44.7,-1.9 0,0 -585.6,-996.5 -410.2,-996.4 2.2,0 4.4,0.2 6.8,0.5 196.5,24.9 870.1,1058.2 870.1,1058.2 0,0 149.2,28 341.4,28 304,0 715.6,-70 814.1,-431 160.9,-589.3 -96.4,-884.7 -243.8,-921.8 -147.3,-37.2 -1093.3,-26.8 -1068.4,-149.6 19.6,-97.3 424.3,-239.9 768.7,-239.9 90.6,0 177.2,9.9 251.3,33.1 0,0 -372.4,-924.9 -870,-924.9 -12.3,0 -24.7,0.5 -37.2,1.7 -516,48.1 -676.4,367.2 -995.8,391.1 -36.8,2.7 -72.3,4 -106.3,4 -261.6,0 -428,-76.4 -286.5,-152.2 159.9,-85.7 700.3,-26.8 958.7,-245.6 258.4,-218.8 467.5,-353.5 -11.4,-452.7 -132.3,-27.5 -293.7,-42.8 -461.7,-42.8 m -1071.6,417.4 c 10.5,-30.4 21.6,-46 21.6,-46 -7.5,16 -14.7,31.3 -21.6,46"
         style="fill:#ccdbfd;fill-opacity:1;fill-rule:nonzero;stroke:none"
         id="path26" />
      <path
         d="m 7195.59,8806.6 c 120.18,11.9 262.81,33 319.6,68 86.49,52.8 236.26,274.6 328.7,436.4 2.64,4 8.62,85.9 10.6,89.9 48.21,85.8 70.09,33 72.72,101 1.99,41.6 -2.63,77.3 -11.22,108.3 -11.22,40.9 -29.72,73.3 -48.86,97.7 -2.65,4 -5.28,7.9 -9.25,11.2 -31.69,37.7 -62.73,53.5 -62.73,53.5 -15.84,6.6 -33.01,-1.3 -50.84,-20.5 v -0.6 c -14.52,-15.2 -30.37,-38.3 -45.56,-67.4 l -1.32,-1.9 c -3.3,-6 -6.61,-12.6 -10.57,-19.8 -1.32,-1.4 -1.98,-3.4 -2.64,-4.7 -7.26,-15.2 -14.52,-31 -21.79,-47.5 -81.21,-177 -142.35,-469.6 -214.32,-549.5 -31.04,-34.3 -198.37,-77.1 -311.28,-127.3 -81.22,-35.7 -21.13,-135.4 58.76,-126.8"
         style="fill:#ffb27d;fill-opacity:1;fill-rule:nonzero;stroke:none"
         id="path28" />
      <path
         d="m 7738.35,9756.6 c -31.15,-27 -66.63,-116.2 -76.6,-146.1 0,0 86.4,3.3 121.3,-63.2 0,0 0.28,248.4 -44.7,209.3"
         style="fill:#2b478b;fill-opacity:1;fill-rule:nonzero;stroke:none"
         id="path30" />
      <path
         d="m 4666.95,5859.3 -1008.53,3698.1 881.51,61.3 326.6,-1810 c 36.6,-198.1 66.09,-364.1 88.47,-497.9 22.35,-133.8 41.25,-253.2 56.73,-358.2 0.5,156.7 3.45,307.7 8.85,453.3 5.34,145.6 13.96,285.6 25.8,420.2 l 153.46,1838.6 881.52,61.3 396.71,-1797.8 c 16.42,-72.3 48.49,-239.7 96.12,-502.3 28.57,-153 51.65,-273.7 69.25,-362.2 2.15,226.9 4.85,404.9 8.11,534 3.25,129.1 6.76,237 10.51,323.7 l 71.91,1850 883.95,61.5 -481.77,-3801.7 -947.26,-66 -312.48,1537 c -27.37,135.1 -53.17,277.2 -77.4,426.5 -24.26,149.1 -47.67,303.8 -70.2,463.7 -0.12,-186 -2.04,-351.7 -5.77,-497.2 -3.76,-145.4 -9.35,-282 -16.75,-409.8 l -87.22,-1559.8 -952.12,-66.3"
         style="fill:#f77d48;fill-opacity:1;fill-rule:nonzero;stroke:none"
         id="path32" />
      <path
         d="m 7997.51,10703 c 0.44,11.9 9.64,140 204.8,146.7 0,0 -95.97,-11.4 -112.55,-53.6 0,0 65.35,52.1 118.56,35.3 53.21,-16.7 84.47,-110 84.79,-140.6 0.3,-30.7 -29.26,-129.5 -63.03,-138 -12.79,-3.1 -27.53,-2.3 -40.91,0 8.99,-14 17.8,-29.5 26.22,-46.8 77.87,-159.8 -2.44,-316.1 -68.37,-298.8 -42.28,11.1 -54.24,-61.1 -54.24,-61.1 L 7682,10478.7 c 0,0 150.88,312.2 315.51,224.3"
         style="fill:#2c3a64;fill-opacity:1;fill-rule:nonzero;stroke:none"
         id="path34" />
      <path
         d="m 7854.49,5993.6 87.26,-32.5 c 0,0 378.98,525.7 425.64,988.1 8.33,82.6 5.55,162.6 -12.47,236.4 0,0 3.7,21.2 10.19,58.6 2.99,17.5 6.69,38.5 10.9,62.5 12.32,70.6 29.27,167.2 48.65,277.2 44.59,253.1 102.37,576.7 147.24,814.5 l -23.5,7.6 -254.39,82 -52.56,167 -189.42,49.9 c 0,0 -42.31,-82.8 -80.14,-473.8 -6.98,-51.3 -13.32,-107.9 -18.1,-169.2 -14.74,-187.2 -15.81,-419.4 18.03,-684.9 8.69,-68 19.66,-138.2 33.26,-210.2 9.98,-52.9 11.47,-124.9 7.27,-207.6 -19.09,-378.1 -157.86,-965.6 -157.86,-965.6"
         style="fill:#739af0;fill-opacity:1;fill-rule:nonzero;stroke:none"
         id="path36" />
      <path
         d="m 7953.79,8061.9 411.32,-817.7 c 2.99,17.5 6.69,38.5 10.9,62.5 12.32,70.6 29.27,167.2 48.65,277.2 44.59,253.1 102.37,576.7 147.24,814.5 l -23.5,7.6 -254.39,82 -52.56,167 -259.1,68.2 c 0,0 -28.56,-505.3 -28.56,-661.3"
         style="fill:#6385db;fill-opacity:1;fill-rule:nonzero;stroke:none"
         id="path38" />
      <path
         d="m 8134.74,8599.9 9.52,81.7 C 8303.78,8639.2 8730,8800 8730,8800 c 0,0 154.55,-135.9 134.25,-461.5 -9.9,-158.9 -27.99,-834.3 -46.88,-1034.1 -6.83,-72.5 -12.81,-124 -15.26,-144.6 l -0.04,-0.2 c -0.75,-6.3 1.44,-12.2 4.63,-17.7 27.82,-47.2 50.85,-96.4 69.74,-146.7 185.44,-494.1 -28.56,-1102.7 -28.56,-1102.7 l -55.54,22.4 c 0,0 -121.78,677.3 -220.73,976.5 -16.81,50.7 -32.91,90.6 -47.66,114.4 -43.02,69.5 -82.95,182.9 -119.19,317.9 -68.5,255.1 -123.63,587 -160.32,843.2 -5.06,-0.3 -109.7,433 -109.7,433"
         style="fill:#739af0;fill-opacity:1;fill-rule:nonzero;stroke:none"
         id="path40" />
      <path
         d="m 7829.99,9590.3 c 50.08,-23.2 110.56,-39 183.72,-43 274.25,-15 336.51,225.4 347.83,385 -39.53,14.3 -74.15,12.9 -94.1,11.9 -7.42,-0.5 -14.97,-1 -22.4,-1.6 -27.24,-2.3 -53.78,9.3 -70.59,30.8 -31.31,40.1 -67.89,111.5 -92.15,210.7 l -11.82,-5.5 -197.89,-93 c 0,0 21.01,-64.4 36.54,-126.1 6.69,-26.6 12.34,-52.8 14.83,-73 2.35,-19.2 -8.46,-37.6 -26.23,-45.1 l -0.07,-0.3 c -1.99,-5 -45.02,-114.6 -67.67,-250.8"
         style="fill:#ffb27d;fill-opacity:1;fill-rule:nonzero;stroke:none"
         id="path42" />
      <path
         d="m 7761.39,9410.4 c 2.07,-5.5 4.34,-10.8 6.84,-16.3 69.46,-149.6 198.03,-769.3 198.03,-769.3 39.48,-119.8 837.3,21.9 839.51,123.3 30.13,107.6 -106.93,280.4 -184.22,367.1 -9.68,10.9 -18.38,22.6 -25.92,34.9 -19.1,30.9 -31.21,65.8 -35.05,102.3 -15.18,143.8 -9.41,278.5 -10.68,360.5 h -0.01 c -15.1,11.2 -29.7,21.5 -43.31,31.3 -20.8,15.2 -39.18,29.4 -52.71,43.8 -14.89,15.7 -24.22,31.7 -25.29,49.8 -0.79,13.7 -0.36,27.7 1.07,41.7 0.64,6.7 1.49,13.3 2.49,19.9 10.68,69.6 39.75,132.7 39.75,132.7 -73.58,29.8 -204.45,12.1 -204.45,12.1 0,0 0.15,-7.3 0.22,-19.2 0.43,-47.8 -38.97,-139.8 -84.61,-208.3 -48.98,-73.4 -222.84,-133.4 -279.16,-23.2 -19.43,38 -8.08,140.8 -6.23,147.6 l 0.07,0.3 c -117.39,-46.1 -159.35,-84.8 -159.35,-84.8 70.74,-45.9 -31.7,-201.1 23.01,-346.2"
         style="fill:#2b478b;fill-opacity:1;fill-rule:nonzero;stroke:none"
         id="path44" />
      <path
         d="m 7872.58,10085.5 c 0,0 21.04,-64.3 36.54,-126 115.67,32.3 150.8,153.9 161.37,219 l -197.91,-93"
         style="fill:#ed985f;fill-opacity:1;fill-rule:nonzero;stroke:none"
         id="path46" />
      <path
         d="m 7848.22,10017.4 c 0,0 276.75,64 234.21,235.8 -42.54,171.7 -35.47,295.6 -213.96,262 -178.49,-33.6 -196.46,-107.6 -196.2,-168.4 0.25,-60.8 102.87,-341.6 175.95,-329.4"
         style="fill:#ffb27d;fill-opacity:1;fill-rule:nonzero;stroke:none"
         id="path48" />
      <path
         d="m 7656.71,10444.3 c 29.75,62.2 64.76,58.9 86.66,47.9 130.04,120.3 257.58,22 257.58,22 49.09,-118.6 155.49,-167.1 155.49,-167.1 0,0 -42.51,-43.5 -165.74,-42.5 -37.63,0.2 -75.48,17.5 -109.91,41.3 66.42,-66.9 144.3,-107.6 144.3,-107.6 -154.25,29.5 -257.68,208.1 -268.28,227.1 -13.06,-19.3 -38.06,-60.4 -40.16,-95.1 -2.86,-47.1 13.35,-138.7 -13.64,-142.1 0,0 -90.92,122.7 -46.3,216.1"
         style="fill:#2c3a64;fill-opacity:1;fill-rule:nonzero;stroke:none"
         id="path50" />
      <path
         d="m 8525.01,5847.1 h 439.46 c 0,0 10.53,67 -12.42,117.8 -22,48.8 -56.45,70.9 -48.2,129.9 -27.93,-28.7 -73.44,-60.9 -136.97,-52.4 -7.78,-12.6 -50.25,-80.1 -76.25,-98.8 -28.72,-20.7 -156.78,-13.3 -165.62,-96.5"
         style="fill:#304b77;fill-opacity:1;fill-rule:nonzero;stroke:none"
         id="path52" />
      <path
         d="m 7581.44,5847.1 h 439.45 c 0,0 16.43,70.1 -12.42,117.8 -25.54,42.2 -15.75,66.3 3.16,101.2 -19.9,-8.2 -45.66,-15.6 -74.01,-14 -21.9,1.3 -45.05,11.2 -65.35,23 -18.92,-21.5 -99.91,-113.3 -125.21,-131.5 -28.73,-20.7 -156.78,-13.3 -165.62,-96.5"
         style="fill:#304b77;fill-opacity:1;fill-rule:nonzero;stroke:none"
         id="path54" />
      <path
         d="m 8567.74,9680.8 c -1.37,-33.7 -7.93,-74.6 -17.82,-119.5 -15.87,-75.2 -42.32,-162.4 -75.33,-250.9 -9.2,-23.7 -18.51,-48.2 -28.4,-72.6 -71.31,-177 -163.08,-342 -240.37,-398.2 -3.23,-2.6 -5.88,-4.6 -9.21,-6.6 -32.32,-20.5 -79.92,-41 -134.68,-60.1 -77.97,-26.4 -170.33,-50.1 -252.9,-70 h -0.69 c -48.19,-10.6 -267.69,-56.5 -267.69,-56.5 l -17.63,68.2 c 0,0 406.19,236.6 476.13,287.4 40.35,29.1 70.72,54.9 81.3,73.3 16.45,28.4 34.97,73.4 55.43,128.8 10.58,29.1 21.75,60.7 33.02,94.4 19.78,55.5 39.57,115.6 60.04,175.6 37.02,109.6 76.59,219.9 114.3,305.2 l 0.11,0.2 c 6.3,13.9 21.49,21.5 36.43,18.3 l 186.4,-39.1 c 1.27,-13.6 2.05,-28.3 2.15,-44.2 0.68,-10.6 0,-21.7 -0.59,-33.7"
         style="fill:#ffb27d;fill-opacity:1;fill-rule:nonzero;stroke:none"
         id="path56" />
      <path
         d="m 8268.34,9686.1 c 160.02,74.7 300.27,28.6 300.27,28.6 -1.59,191.2 -96.75,217.4 -96.75,217.4 -38.29,15.8 -204.2,-7.1 -203.52,-246"
         style="fill:#2b478b;fill-opacity:1;fill-rule:nonzero;stroke:none"
         id="path58" />
      <path
         d="m 7565.4,8739.3 c 0,0 -111.74,-43.5 -133.38,-60.5 -21.63,-16.9 -63.2,-72.3 -70.65,-101.5 0,0 0.39,-12 11.52,-12 11.13,0 36.17,42.8 54.48,36 0,0 16.57,-45.7 16.57,-74.3 0,-19.4 -11.18,-92.4 -8.39,-108 2.79,-15.7 73.33,49 87.47,99.1 11.4,40.3 5.31,64.9 11.81,114.5 5.71,43.4 125.71,68.6 125.71,68.6 l -95.14,38.1"
         style="fill:#ffb27d;fill-opacity:1;fill-rule:nonzero;stroke:none"
         id="path60" />
      <path
         d="m 9276.34,5857.6 v 3759.1 h 2045.56 v -729.8 h -1171.7 v -690.8 h 1081.4 v -754.3 h -1081.4 v -820.2 h 1171.7 v -764 H 9276.34"
         style="fill:#f77d48;fill-opacity:1;fill-rule:nonzero;stroke:none"
         id="path62" />
      <path
         d="m 13704,5857.6 h -1935.7 v 3759.1 h 878.8 v -3000 H 13704 v -759.1"
         style="fill:#f77d48;fill-opacity:1;fill-rule:nonzero;stroke:none"
         id="path64" />
      <path
         d="m 15583.4,7402.7 h 864.1 c 1.6,-22.8 2.8,-47.2 3.6,-73.2 0.8,-26 1.3,-65.1 1.3,-117.2 0,-458.9 -100.5,-799.4 -301.5,-1021.5 -201,-222.1 -509,-333.2 -923.9,-333.2 -244.1,0 -453.3,40.7 -627.4,122 -174.1,81.4 -314.9,204.2 -422.3,368.6 -74.8,117.2 -128.5,279.9 -161.1,488.2 -32.5,208.3 -48.8,538.6 -48.8,991.1 0,452.4 16.3,782.7 48.8,991 32.6,208.3 86.3,371.1 161.1,488.2 105.8,162.7 244.9,285.2 417.5,367.4 172.4,82.1 378.3,123.3 617.5,123.3 411.7,0 720.5,-114.4 926.4,-343 205.8,-228.6 308.8,-570.8 308.8,-1026.4 v -36.7 l -854.4,2.5 c -3.3,255.4 -32.6,434.9 -87.9,538.2 -55.3,103.4 -148.1,155 -278.2,155 -141.6,0 -238.5,-63.1 -290.5,-189.1 -52.1,-126.2 -78.1,-459.4 -78.1,-999.6 v -70.8 c 0,-581 26,-937 78.1,-1068 52,-131 148.9,-196.5 290.5,-196.5 131.8,0 224.1,47.6 277,142.8 52.9,95.2 79.4,272.2 79.4,530.9 v 166"
         style="fill:#f77d48;fill-opacity:1;fill-rule:nonzero;stroke:none"
         id="path66" />
      <path
         d="m 18502.3,7488.2 v 678.6 c 0,416.5 -26.5,674.1 -79.3,772.6 -52.9,98.4 -148.5,147.6 -286.9,147.6 -135,0 -228.6,-50.4 -280.7,-151.3 -52.1,-100.9 -78.1,-357.2 -78.1,-768.9 v -678.6 c 0,-406.9 26,-662 78.1,-765.3 52.1,-103.3 147.3,-155 285.6,-155 136.7,0 231.1,50.4 283.2,151.3 52.1,100.9 78.1,357.2 78.1,769 m -1620.8,339.3 c 0,452.4 16.2,782.7 48.8,991 32.5,208.3 86.2,371.1 161.1,488.2 107.4,166 248.1,289.3 422.3,369.8 174.1,80.6 383.2,120.9 627.3,120.9 245.7,0 454.4,-40.3 626.2,-120.9 171.6,-80.5 311.2,-203.8 418.6,-369.8 78.1,-118.8 133.4,-282.3 166,-490.6 32.5,-208.3 48.8,-537.9 48.8,-988.6 0,-449.2 -16.3,-778.3 -48.8,-987.4 -32.6,-209.1 -87.9,-373.1 -166,-491.9 -105.8,-164.4 -245.3,-287.2 -418.6,-368.6 -173.4,-81.3 -382.1,-122 -626.2,-122 -244.1,0 -453.2,40.7 -627.3,122 -174.2,81.4 -314.9,204.2 -422.3,368.6 -74.9,117.2 -128.6,279.9 -161.1,488.2 -32.6,208.3 -48.8,538.6 -48.8,991.1"
         style="fill:#f77d48;fill-opacity:1;fill-rule:nonzero;stroke:none"
         id="path68" />
      <path
         d="m 19910.4,5857.6 v 3759.1 h 1230.3 l 334.4,-1598.8 c 1.6,-8.2 15.1,-108.7 40.3,-301.5 25.2,-192.8 51.6,-386.1 79.3,-579.7 21.2,144.8 47.6,324.2 79.4,538.2 31.7,214 50,332.4 54.9,355.2 l 332,1586.6 h 1218 V 5857.6 h -829.9 l 75.7,2904.8 -595.6,-2904.8 h -668.9 l -595.6,2904.8 75.7,-2904.8 h -830"
         style="fill:#f77d48;fill-opacity:1;fill-rule:nonzero;stroke:none"
         id="path70" />
      <path
         d="m 4011.13,11693.5 c 0,0 174.99,417.4 593.45,371.1 0,0 607.52,695.7 1255.37,92.7 0,0 688.66,149.4 1198.66,-129.3 340.03,-185.9 452.35,-380.8 452.35,-380.8 l -3499.83,46.3"
         style="fill:#f8fcff;fill-opacity:1;fill-rule:nonzero;stroke:none"
         id="path72" />
      <path
         d="m 10732,11396.2 c 0,0 231.3,401.1 784.6,356.5 0,0 803.2,668.5 1659.7,89.2 0,0 910.5,143.5 1584.8,-124.3 449.6,-178.6 598.1,-366 598.1,-366 l -4627.2,44.6"
         style="fill:#f8fcff;fill-opacity:1;fill-rule:nonzero;stroke:none"
         id="path74" />
      <path
         d="m 14668.4,12326.5 c 0,0 164.1,303.9 556.4,270.1 0,0 569.6,506.4 1177,67.5 0,0 645.6,108.8 1123.8,-94.1 318.8,-135.3 424.1,-277.2 424.1,-277.2 l -3281.3,33.7"
         style="fill:#f8fcff;fill-opacity:1;fill-rule:nonzero;stroke:none"
         id="path76" />
      <path
         d="m 23279,10897.4 c 0,0 118.5,219.4 401.7,195 0,0 411.1,365.5 849.6,48.7 0,0 466,78.5 811.2,-67.9 230.1,-97.7 306.2,-200.1 306.2,-200.1 l -2368.7,24.3"
         style="fill:#f8fcff;fill-opacity:1;fill-rule:nonzero;stroke:none"
         id="path78" />
      <path
         d="m 26710.1,9338.4 c -57.1,-106 -128.3,-213 -201.2,-300.1 v 0 c -76.4,-91.2 -154.6,-160.5 -220.5,-184 l -0.5,-0.1 c -3.5,-1.2 -6.9,-2.3 -10.3,-3.3 l -0.5,-0.1 v 0 c -13.4,-3.8 -26.2,-5.5 -38.4,-4.9 -216.5,9.7 -444.7,474.1 -444.7,474.1 0,0 5.9,55.1 48.1,94 36.7,33.9 65,42.8 65,42.8 0,0 233.2,-239.5 290.1,-256.7 35.9,-10.8 83,156.4 150.5,366.4 67.5,210 304.7,261.8 304.7,261.8 0,0 240,-151.9 57.7,-489.9"
         style="fill:#739af0;fill-opacity:1;fill-rule:nonzero;stroke:none"
         id="path80" />
      <path
         d="m 26508.9,9038.3 v 0 c -76.4,-91.2 -154.6,-160.5 -220.5,-184 l -0.5,-0.1 -10.3,-3.3 -0.5,-0.1 v 0 c 2.4,1.6 73,38.2 84.1,106.2 11.3,69.5 -62.2,126.3 122.5,233.7 107.6,62.6 25.2,-152.4 25.2,-152.4"
         style="fill:#6385db;fill-opacity:1;fill-rule:nonzero;stroke:none"
         id="path82" />
      <path
         d="m 26339.9,5852.7 h 507.4 c 36.4,24.6 -9.8,265.7 -9.8,265.7 0,0 -138.5,52.6 -162.4,-54.3 -24,-106.8 -176.4,-140.8 -257.1,-153.8 -55.2,-9 -72.6,-39.3 -78.1,-57.6"
         style="fill:#24406d;fill-opacity:1;fill-rule:nonzero;stroke:none"
         id="path84" />
      <path
         d="m 27113.7,8351.5 c 0,0 -16,-296.1 -36,-639.1 -14.4,-246 -30.8,-516.2 -44.9,-718.5 -1.8,-26.8 -3.7,-52.5 -5.4,-76.7 -0.5,-7.6 -1.1,-15 -1.7,-22.5 -36.3,-453.7 -157.8,-851.1 -157.8,-851.1 -142.7,-30.1 -207.2,24.9 -207.2,24.9 0,0 -98.3,1152.2 -134.7,1616.9 -26.8,342 -49.6,840.1 -49.6,840.1 l 637.3,-174"
         style="fill:#c1514c;fill-opacity:1;fill-rule:nonzero;stroke:none"
         id="path86" />
      <path
         d="m 27077.7,7712.4 c -14.4,-246 -30.8,-516.2 -44.9,-718.5 -93.2,220 -283.8,1077.6 -283.8,1077.6 l 328.7,-359.1"
         style="fill:#a9453d;fill-opacity:1;fill-rule:nonzero;stroke:none"
         id="path88" />
      <path
         d="m 27092.5,5852.7 h 507.5 c 36.3,24.6 -9.8,265.7 -9.8,265.7 0,0 -138.5,52.6 -162.4,-54.3 -24,-106.8 -176.5,-140.8 -257.1,-153.8 -55.2,-9 -72.7,-39.3 -78.2,-57.6"
         style="fill:#24406d;fill-opacity:1;fill-rule:nonzero;stroke:none"
         id="path90" />
      <path
         d="m 26614.2,8410.4 c 0,0 362.5,-902.1 478.3,-1244.1 82.5,-243.5 315.3,-1098 315.3,-1098 0,0 101.2,-30.8 186.2,28.7 0,0 86.6,873 -88.3,1119.2 -92.8,130.6 -23,1357.5 -399.3,1368 -376.2,10.5 -492.2,-173.8 -492.2,-173.8"
         style="fill:#c1514c;fill-opacity:1;fill-rule:nonzero;stroke:none"
         id="path92" />
      <path
         d="m 27356.3,8700.5 c -1.5,-128.3 -2.9,-222.4 -2.6,-246.2 1,-77.7 -48.6,-95.2 -99.8,-107 0,0 -47.2,-10.2 -106.9,-20.3 -58.4,-9.8 -128.8,-19.4 -178.5,-19.1 -254.5,2 -467.5,76.9 -467.5,76.9 -47.8,0 -69.7,74.1 -77.5,177.5 -5.3,70 16.3,767.9 19,942.2 1.8,125 70.5,240.5 89.6,257.4 177.7,157.1 702.1,137.3 796.4,28.9 23.4,-26.7 30.1,-285.2 30.9,-568.2 0.5,-182.2 -1.3,-374.7 -3.1,-522.1"
         style="fill:#739af0;fill-opacity:1;fill-rule:nonzero;stroke:none"
         id="path94" />
      <path
         d="m 27041.5,9853 c -66.9,-72.5 -291.8,-61.8 -285.1,1.6 0.9,7.8 2.4,54.1 3.1,61.3 0.6,5.8 1.1,11.4 1.6,16.7 1.5,15.6 2.8,29.4 3.8,41.4 3,34.7 3.9,53.5 3.9,53.5 h 0.3 c 6.4,1.8 151,42.8 222.9,59.9 24.1,5.7 40.1,8.7 39.8,6.6 -22,-161.5 31.6,-217.2 9.7,-241"
         style="fill:#ffb27d;fill-opacity:1;fill-rule:nonzero;stroke:none"
         id="path96" />
      <path
         d="m 26999.6,10039.7 c 0,0 -60.4,-61.3 -234.7,-65.7 3,34.7 3.9,53.5 3.9,53.5 h 0.3 c 6.4,1.8 151,42.8 222.9,59.9 12.6,-5.2 -4.2,-39 7.6,-47.7"
         style="fill:#ed975d;fill-opacity:1;fill-rule:nonzero;stroke:none"
         id="path98" />
      <path
         d="m 26724.6,10036.1 c 0,0 44.2,-15.9 100.5,-23.4 82.3,-11.1 190.5,-4.6 224.5,95 57.2,167.6 130.4,268.1 -38.1,336.5 -90.2,36.7 -147.9,38.6 -187.1,24.6 -34.1,-12 -54.2,-36.2 -69.4,-60 -32.7,-51.3 -98.5,-343.4 -30.4,-372.7"
         style="fill:#ffb27d;fill-opacity:1;fill-rule:nonzero;stroke:none"
         id="path100" />
      <path
         d="m 26767.7,10538.5 c -60.2,-39.5 -40.5,-132.2 30.4,-144.6 42.5,-7.5 78.2,-9 98.8,-18.2 41.9,-18.6 77.9,-38.4 68,-103.4 -3.3,-22.1 -14.1,-49 42.8,-35.6 9.3,2.1 16,1.5 20.7,-1.3 23.6,-14 -6.6,-81.9 -15.7,-96.6 0,0 -13.1,-48.6 16,-72.3 3.5,-2.8 60.6,-27.8 198.1,182.8 21.7,33 42.3,107.5 8.9,179.1 -33.3,71.7 -126.4,162.4 -301.6,162.4 -45.7,0 -114.3,-18.1 -166.4,-52.3"
         style="fill:#233862;fill-opacity:1;fill-rule:nonzero;stroke:none"
         id="path102" />
      <path
         d="m 26723.4,10144.3 c 0,0 -3.6,-21.7 46.9,-39 0,0 42.3,-14.6 50.1,7.7 0,0 -33.7,32 -97,31.3"
         style="fill:#ffffff;fill-opacity:1;fill-rule:nonzero;stroke:none"
         id="path104" />
      <path
         d="m 27356.3,8700.5 c -25.6,-119 -67.2,-160.2 -90.6,-115.8 -82,155.4 -81,220.6 -45.5,330.9 35.6,110.2 -89.2,282.6 0,356.1 87.3,71.9 137.1,-44 139.2,-49.1 0.5,-182.2 -1.3,-374.7 -3.1,-522.1"
         style="fill:#6385db;fill-opacity:1;fill-rule:nonzero;stroke:none"
         id="path106" />
      <path
         d="m 27352.4,8715.8 c 0,0 -60.3,-98.6 -99.9,-95.1 -39.5,3.4 -92.9,18.2 -123.7,-11.2 -30.8,-29.4 -80.5,-105.3 -66.6,-125.5 13.9,-20.2 69.7,-2.3 109.8,19.9 40.1,22.1 103.2,-10.9 136.8,14.2 33.7,25.1 114.3,124.9 114.3,124.9 l -70.7,72.8"
         style="fill:#ffb27d;fill-opacity:1;fill-rule:nonzero;stroke:none"
         id="path108" />
      <path
         d="m 27328.5,9790.8 c 0,0 500.7,-471 435.6,-784.4 -29.6,-142.8 -121.5,-263.3 -366.5,-458.3 0,0 -115.9,80.1 -141.3,145.1 0,0 222.4,313.2 213.8,366.5 -10.6,65.3 -162.4,229 -216.8,254.4 -54.5,25.5 -49.5,422.1 75.2,476.7"
         style="fill:#739af0;fill-opacity:1;fill-rule:nonzero;stroke:none"
         id="path110" />
      <path
         d="m 27252.5,8620.7 c 0,0 -52.7,23 -69.7,32.9 -17,9.9 -13.2,-6.1 -8,-14.1 5.2,-8 19.3,-25.9 40,-27.8 20.8,-1.9 37.7,9 37.7,9"
         style="fill:#ffb27d;fill-opacity:1;fill-rule:nonzero;stroke:none"
         id="path112" />
      <path
         d="m 18617.4,8530.3 c 119.5,25.5 244.2,-10.6 332.6,-95 39.1,-37.2 81.9,-83.6 121.2,-138.6 97.5,-136.1 -89.2,-270.8 -64.4,-316.9 24.9,-46.1 82.4,-82.5 57.2,-178.8 -25.2,-96.3 -191.1,-221.2 -245.2,-226.8 -548.4,-56.3 -786.5,246 -603.1,409 183.3,163 108.5,399.4 257.3,491.3 46,28.3 96.5,45.5 144.4,55.8"
         style="fill:#233862;fill-opacity:1;fill-rule:nonzero;stroke:none"
         id="path114" />
      <path
         d="m 18900.2,7677.9 c 0,0 512.6,-215.7 606.4,-211.6 93.7,4.1 671.4,176 671.4,176 l -14.7,-99.4 c 0,0 -445.8,-256.4 -601.7,-271 -153.4,-14.3 -678.1,137.8 -728.8,169.9 -50.6,32.1 -79.8,203.6 67.4,236.1"
         style="fill:#ef9f6a;fill-opacity:1;fill-rule:nonzero;stroke:none"
         id="path116" />
      <path
         d="m 18959.1,7441.5 c -45.3,-31.5 -102.2,-57.4 -173.6,-73.9 -267.6,-61.8 -370.2,164.4 -408.7,319.6 36.5,20.9 70.8,25.5 90.6,27.9 19.4,2.3 39.7,3.8 56.6,4.6 30,23 74.8,117.2 84.7,263.5 l 12.6,-3.4 210.9,-57.7 c 0,0 -9.6,-67 -14.4,-130.4 -3.6,-49.6 -4.2,-97 5.2,-108.6 16.5,-3.6 26.3,-5.9 26.3,-5.9 l 0.1,-0.2 c 2.9,-4.6 64.1,-105.3 109.7,-235.5"
         style="fill:#ffb27d;fill-opacity:1;fill-rule:nonzero;stroke:none"
         id="path118" />
      <path
         d="m 18832.2,7922.1 c 0,0 -9.7,-67 -14.3,-130.4 -119.6,11.9 -175,125.7 -196.6,188.1 l 210.9,-57.7"
         style="fill:#ed985f;fill-opacity:1;fill-rule:nonzero;stroke:none"
         id="path120" />
      <path
         d="m 18867.9,7859.1 c 0,0 -283.6,15.7 -271.2,192.2 12.5,176.5 -15.7,297.3 165.9,294.8 181.6,-2.5 212,-72.3 222.2,-132.3 10.2,-59.9 -42.8,-354.2 -116.9,-354.7"
         style="fill:#ffb27d;fill-opacity:1;fill-rule:nonzero;stroke:none"
         id="path122" />
      <path
         d="m 18983.4,8312.6 c -40,56.2 -73.9,46.9 -93.6,32.3 -148.7,96.2 -257.5,-22.5 -257.5,-22.5 -28.1,-125.3 -124.6,-191.2 -124.6,-191.2 0,0 50.3,-40.2 170.6,-13.6 153.9,34.2 206.8,167.6 214,188.1 16.2,-16.7 37.1,-27.4 53.1,-63.8 19,-43.2 31,-68.3 31.3,-139.3 0,0 66.7,125.6 6.7,210"
         style="fill:#233862;fill-opacity:1;fill-rule:nonzero;stroke:none"
         id="path124" />
      <path
         d="m 18296,6864.8 c -25.6,130.9 -109.2,654.1 -25.6,822.4 30,60.5 147.6,66 276.8,60.7 40.2,-26 193.3,-124 256.2,-111.8 0.7,0.2 1.9,0.5 3.5,0.9 29.6,7.4 40.8,28.2 16.1,46.1 -0.1,0 63.9,6.2 143.4,-8.8 44.8,-8.4 165.8,-71 165.8,-71 0,0 -60.9,-110.1 -150.7,-148.1 15.2,-136.7 -7.5,-197 -149.3,-512.7 -119.8,-266.8 16.2,-507 16.2,-507 0,0 -705.3,-567.1 -709.2,-278.4 -3,217.4 189.5,540.3 156.8,707.7"
         style="fill:#739af0;fill-opacity:1;fill-rule:nonzero;stroke:none"
         id="path126" />
      <path
         d="m 18883.4,5818.9 c 38.3,4.3 72.8,25.3 94.3,57.4 3.4,5.1 7,10.6 10.9,16.4 80.3,121.5 111.5,493.7 292.1,890.3 44,96.5 201.9,113.8 244.9,223 0,0 106,353.7 -202.8,364.1 -308.8,10.4 -827,-984.1 -835.2,-1088.4 -7.9,-101.1 -204.1,-530.5 395.8,-462.8"
         style="fill:#233862;fill-opacity:1;fill-rule:nonzero;stroke:none"
         id="path128" />
      <path
         d="m 20110.6,5827 h -439.5 c 0,0 -16.4,70.1 12.5,117.8 25.5,42.2 15.7,66.2 -3.2,101.2 19.9,-8.2 45.7,-15.6 74,-14 21.9,1.3 45.1,11.2 65.4,23 18.9,-21.6 99.9,-113.4 125.2,-131.5 28.7,-20.7 156.8,-13.3 165.6,-96.5"
         style="fill:#1a2d4c;fill-opacity:1;fill-rule:nonzero;stroke:none"
         id="path130" />
      <path
         d="m 18313.2,7441.8 c 0,0 57.1,-233 505.6,-327.7 448.4,-94.7 102.2,225.3 102.2,225.3 l -470.2,125.9 -137.6,-23.5"
         style="fill:#6385db;fill-opacity:1;fill-rule:nonzero;stroke:none"
         id="path132" />
      <path
         d="m 19535.7,7267.9 c 26.4,-198.4 129.8,-824.6 312.1,-1130.2 58.7,-98.5 -148.1,-153.7 -149.2,-153.4 -27.8,7.3 -74,51.5 -95.3,70.7 -148,133.4 -448.4,511.1 -448.4,813.9 0,147.6 -2.6,429.6 104.7,501.3 66.2,44.1 265.5,-23.5 276.1,-102.3"
         style="fill:#233862;fill-opacity:1;fill-rule:nonzero;stroke:none"
         id="path134" />
      <path
         d="m 19235.1,7004 c -43,-109.2 -164.1,-95.8 -208.1,-192.4 -24.6,-54.2 -47.8,-108.3 -69.5,-161.9 -2.3,-5.4 -4.3,-10.6 -6.3,-15.6 -26.7,-66.2 -51.4,-131.3 -74.3,-194 -35.3,-96.3 -66.3,-186.7 -94.4,-266.3 -45.3,-129.1 -82.7,-229.9 -116.5,-281.1 -28.4,-43.1 -44.7,-65.7 -44.7,-65.7 -673.3,-103.9 -493.2,346.3 -456.2,454.7 33.7,99 620.4,1121.4 929.2,1110.9 308.7,-10.4 140.8,-388.6 140.8,-388.6"
         style="fill:#2b478b;fill-opacity:1;fill-rule:nonzero;stroke:none"
         id="path136" />
      <path
         d="m 19788,5827 h -439.5 c 0,0 -16.4,70.1 12.4,117.8 25.6,42.2 15.8,66.2 -3.1,101.2 19.9,-8.2 45.6,-15.6 74,-14 21.9,1.3 45,11.2 65.3,23 19,-21.6 100,-113.4 125.3,-131.5 28.7,-20.7 156.8,-13.3 165.6,-96.5"
         style="fill:#233862;fill-opacity:1;fill-rule:nonzero;stroke:none"
         id="path138" />
      <path
         d="m 18876.9,6440.1 c -93,253.3 -44.7,502.5 -44.7,502.5 67,-46.4 106.8,-161.5 125.3,-292.9 -2.3,-5.4 -4.3,-10.6 -6.3,-15.6 -26.7,-66.2 -51.4,-131.3 -74.3,-194 v 0"
         style="fill:#273f76;fill-opacity:1;fill-rule:nonzero;stroke:none"
         id="path140" />
      <path
         d="m 19279.1,7281.9 c 26.5,-198.4 63.7,-838.6 246,-1144.2 58.8,-98.5 -148,-153.7 -149.2,-153.4 -27.7,7.3 -73.9,51.5 -95.2,70.7 -148,133.4 -448.5,511.1 -448.5,813.9 0,147.6 173.3,417.8 280.7,489.4 66.1,44.2 155.7,2.4 166.2,-76.4"
         style="fill:#2b478b;fill-opacity:1;fill-rule:nonzero;stroke:none"
         id="path142" />
      <path
         d="m 20230.5,7897.9 -450.1,47.8 c -13.1,1.4 -25.5,-6.2 -30.2,-18.5 L 19589.1,7504 c -7,-18.5 6.2,-38.5 26,-39.3 l 446.6,-18 c 12.1,-0.5 23.3,6.6 28,17.8 l 164.5,393.3 c 7.5,18 -4.4,38.1 -23.7,40.1"
         style="fill:#233862;fill-opacity:1;fill-rule:nonzero;stroke:none"
         id="path144" />
      <path
         d="m 20269.6,7893.8 -450.1,47.9 c -13.1,1.3 -25.6,-6.3 -30.2,-18.6 L 19628.2,7500 c -7,-18.6 6.2,-38.6 26,-39.4 l 446.6,-18 c 12.1,-0.5 23.3,6.6 28,17.8 l 164.5,393.3 c 7.5,18 -4.4,38.1 -23.7,40.1"
         style="fill:#2b478b;fill-opacity:1;fill-rule:nonzero;stroke:none"
         id="path146" />
      <path
         d="m 20020.1,7696.3 c 5.5,15.1 -2.3,27.3 -17.4,27.3 -15.1,0 -31.8,-12.2 -37.3,-27.3 -5.5,-15.1 2.3,-27.4 17.4,-27.4 15.1,0 31.8,12.3 37.3,27.4"
         style="fill:#ebf3fa;fill-opacity:1;fill-rule:nonzero;stroke:none"
         id="path148" />
      <path
         d="m 20256.1,7853.9 c 2.7,7.4 -1.1,13.4 -8.6,13.4 -7.4,0 -15.6,-6 -18.3,-13.4 -2.7,-7.5 1.1,-13.5 8.6,-13.5 7.4,0 15.6,6 18.3,13.5"
         style="fill:#ebf3fa;fill-opacity:1;fill-rule:nonzero;stroke:none"
         id="path150" />
      <path
         d="m 18376.8,7687.2 c 0,0 623.7,-229.7 717.5,-225 60.6,3.1 564.1,180.1 564.1,180.1 l 45.2,-85.6 c 0,0 -490.1,-315 -624.8,-313.4 -266.1,3.1 -714.9,166.4 -765.6,198.5 -50.6,32.1 -83.6,212.9 63.6,245.4"
         style="fill:#ffb27d;fill-opacity:1;fill-rule:nonzero;stroke:none"
         id="path152" />
      <path
         d="m 19658.4,7642.3 c 0,0 45.2,69.5 90.2,71.6 45,2 122.8,-30.7 149.4,-35.8 26.6,-5.1 102.3,-29.7 79.8,-66.5 -22.5,-36.9 -126.9,-45 -171.9,-36.9 -45,8.2 -102.3,-18 -102.3,-18 l -45.2,85.6"
         style="fill:#ffb27d;fill-opacity:1;fill-rule:nonzero;stroke:none"
         id="path154" />
      <path
         d="m 19736.4,7711.7 c 0,0 71.5,32.9 92,39 20.5,6.1 16.4,-0.1 10.2,-19.5 -6.1,-19.4 -42.9,-37.9 -42.9,-44 0,-6.1 -59.3,24.5 -59.3,24.5"
         style="fill:#ffb27d;fill-opacity:1;fill-rule:nonzero;stroke:none"
         id="path156" />
      <path
         d="m 20223.2,7679.1 c 0,0 -45.1,71.4 -59.9,74.3 -45,8.9 -45,-50.4 -35.5,-88.6 10.2,-41.1 44.9,-79.8 54.5,-76.4 9.6,3.4 51.5,53 40.9,90.7"
         style="fill:#ffb27d;fill-opacity:1;fill-rule:nonzero;stroke:none"
         id="path158" />
      <path
         d="m 20224.9,7664.8 c 0,0 14.4,-80.1 -61.6,-121.9 l 22.5,55.1 39.1,66.8"
         style="fill:#ffb27d;fill-opacity:1;fill-rule:nonzero;stroke:none"
         id="path160" />
      <path
         d="m 18921,7960.6 c 0,0 -26.8,10.6 -102.2,4.5 0,0 4,-29.4 59.6,-32.3 31.5,-1.7 42.6,27.8 42.6,27.8"
         style="fill:#ffffff;fill-opacity:1;fill-rule:nonzero;stroke:none"
         id="path162" />
      <path
         d="m 18698.1,7573.9 c 0,0 -55.7,-176.6 -247.3,-216.8 0,0 -316.5,97.5 -158.9,313.1 0,0 155.8,115.7 406.2,-96.3"
         style="fill:#739af0;fill-opacity:1;fill-rule:nonzero;stroke:none"
         id="path164" />
      <path
         d="m 18609,10629.2 c 0,0 -57.1,-105.9 -160.5,-146.9 -76.7,-30.4 -183.5,-0.1 -188.6,2.9 l -5.8,-131.1 c 0,0 174.7,-11.8 277.1,69.3 31.4,24.8 70.1,88.8 82.2,128 13.3,43.3 -4.4,77.8 -4.4,77.8"
         style="fill:#6bb7bf;fill-opacity:1;fill-rule:nonzero;stroke:none"
         id="path166" />
      <path
         d="m 18497.6,10838.5 114.7,136.1 c 0,0 137.2,-313.9 -65.6,-536.5 0,0 50.8,289.8 -49.1,400.4"
         style="fill:#86d1cd;fill-opacity:1;fill-rule:nonzero;stroke:none"
         id="path168" />
      <path
         d="m 6443.78,10803.3 c 0,0 -109.32,82.6 -137.53,205.9 -20.94,91.5 31.59,206.4 35.88,211.6 l -146.48,29.2 c 0,0 -43.39,-194.4 30.07,-323.6 22.52,-39.6 87.8,-94.2 129.82,-114.6 46.3,-22.4 88.24,-8.5 88.24,-8.5"
         style="fill:#6bb7bf;fill-opacity:1;fill-rule:nonzero;stroke:none"
         id="path170" />
      <path
         d="m 6698.32,10892.4 133.25,-152.4 c 0,0 -376.68,-100.1 -592,166.4 0,0 317.12,-107.2 458.75,-14"
         style="fill:#86d1cd;fill-opacity:1;fill-rule:nonzero;stroke:none"
         id="path172" />
      <path
         d="m 23471.5,10253.4 c 0,0 -235.4,22.3 -216.9,270 l -166.7,50.8 c 0,0 -20.2,-146.4 252.5,-304.4 178.4,-103.5 131.1,-16.4 131.1,-16.4"
         style="fill:#5685d8;fill-opacity:1;fill-rule:nonzero;stroke:none"
         id="path174" />
      <path
         d="m 23702.7,10230.7 c 0,0 -181.3,-132.5 -485.4,124.6 0,0 123.1,-85.5 337.2,-12.9 l 148.2,-111.7"
         style="fill:#739af0;fill-opacity:1;fill-rule:nonzero;stroke:none"
         id="path176" />
      <path
         d="m 11844.7,10253.4 c 0,0 -235.4,22.3 -216.9,270 l -166.7,50.8 c 0,0 -20.2,-146.4 252.5,-304.4 178.4,-103.5 131.1,-16.4 131.1,-16.4"
         style="fill:#5685d8;fill-opacity:1;fill-rule:nonzero;stroke:none"
         id="path178" />
      <path
         d="m 12075.9,10230.7 c 0,0 -181.3,-132.5 -485.4,124.6 0,0 123.1,-85.5 337.2,-12.9 l 148.2,-111.7"
         style="fill:#739af0;fill-opacity:1;fill-rule:nonzero;stroke:none"
         id="path180" />
      <path
         d="m 17277.5,11290.9 c 0,0 -132.4,83.6 -146.3,184.7 0,0 -128.9,-7 -156.8,-48.8 0,0 59.2,-167.2 128.9,-198.6 0,0 156.8,-10.4 174.2,62.7"
         style="fill:#f99746;fill-opacity:1;fill-rule:nonzero;stroke:none"
         id="path182" />
      <path
         d="m 13750.3,12631.2 c 0,0 132.4,83.6 146.3,184.6 0,0 128.9,-6.9 156.8,-48.7 0,0 -59.2,-167.3 -128.9,-198.7 0,0 -156.8,-10.4 -174.2,62.8"
         style="fill:#f99746;fill-opacity:1;fill-rule:nonzero;stroke:none"
         id="path184" />
      <path
         d="m 14834.1,10521.5 c 0,0 115.7,73 127.8,161.3 0,0 112.6,-6.1 137,-42.6 0,0 -51.8,-146.1 -112.6,-173.5 0,0 -137,-9.1 -152.2,54.8"
         style="fill:#86d1cd;fill-opacity:1;fill-rule:nonzero;stroke:none"
         id="path186" />
      <path
         d="m 13521.4,8833.2 c -226.7,57.7 -475.8,409.3 -475.8,409.3 l 63.8,55.3 c 66,-77.9 340.8,-212 340.8,-212 -1.5,71.3 0.4,136.3 4.9,195.5 30.5,402.2 182.1,536.2 223.5,565.6 6.6,4.8 10.5,6.8 10.5,6.8 0,0 0.1,-2.9 0.4,-8.5 0.6,-11.9 1.7,-36 2.8,-69.1 8.4,-246.1 18.5,-991.2 -170.9,-942.9"
         style="fill:#ffb27d;fill-opacity:1;fill-rule:nonzero;stroke:none"
         id="path188" />
      <path
         d="m 13703,9382.2 c -0.5,-22 -1.2,-44.2 -2.2,-66.3 -7.3,-179 -26.7,-356.8 -70.6,-460.9 -10.8,-25.6 -23.1,-46.7 -37,-62.3 -20.3,-22.7 -44.1,-33.7 -72,-29.6 -153.1,22.4 -193,165.3 -201.1,271.5 -5.1,66.2 2.2,118.1 2.2,118.1 0,0 75.4,0.3 87.6,11.6 25,23.1 36,134.4 42.7,257.7 8.9,161.6 11.2,343.2 26.7,374.5 44.1,89.4 214.5,89.4 214.5,89.4 0,0 15.9,-243.4 9.2,-503.7"
         style="fill:#739af0;fill-opacity:1;fill-rule:nonzero;stroke:none"
         id="path190" />
      <path
         d="m 13883.6,10295.2 c 0,0 -126.3,-74.3 -48.8,-218.4 0,0 -110.5,20.2 -134.4,53.2 0,0 2.8,-13.7 6.9,-20.7 0,0 -101.6,23.1 -134.8,65.5 -33.3,42.3 129.7,550.2 393.8,418.7 0,0 241.5,-44.8 147,-312.9 -94.6,-268.2 -5.2,-291.8 -5.2,-291.8 0,0 -28.1,-5.7 -40.2,-2.5 0,0 -15.7,11.3 -16.6,21.9 0,0 -0.6,-16.1 2.6,-22.2 0,0 -98.9,16.4 -137.4,65.6 -38.6,49.2 -61.6,190.7 -32.9,243.6"
         style="fill:#233862;fill-opacity:1;fill-rule:nonzero;stroke:none"
         id="path192" />
      <path
         d="m 13701.3,9863.6 -0.4,-0.2 c -0.8,0.1 -0.7,0.2 0.4,0.2"
         style="fill:#ffb27d;fill-opacity:1;fill-rule:nonzero;stroke:none"
         id="path194" />
      <path
         d="m 14008.1,9951.9 c 3.7,-33.3 8.2,-63.1 10.1,-77.3 4.5,-31.8 -297.6,-11.1 -316.9,-11 13.4,5.8 54.4,135.8 67.4,185.4 15.7,60.1 28.1,125.1 28.1,125.1 l 213.3,-13.5 12.7,-0.8 c -7.9,-29.1 -13.5,-56.5 -17.4,-82 -0.5,-3.4 -1,-6.9 -1.4,-10.3 -3.9,-28.3 -0.5,-74.6 4.1,-115.6"
         style="fill:#ffb27d;fill-opacity:1;fill-rule:nonzero;stroke:none"
         id="path196" />
      <path
         d="m 13767.3,10195.6 c 0,0 -34.5,109.7 -27.5,193.8 5,60 90.4,264.8 295.9,177.7 0,0 60.5,-22.6 108.3,-77.4 38.1,-43.6 87.2,-128.9 -36.8,-294.6 l -36,-57.5 -303.9,58"
         style="fill:#233862;fill-opacity:1;fill-rule:nonzero;stroke:none"
         id="path198" />
      <path
         d="m 13728.5,9365 -11.3,-362.1 c 0,0 -40,-68.6 -87,-147.9 -12.1,-20.4 -24.6,-41.5 -37,-62.3 -20.3,-22.7 -44.1,-33.7 -72,-29.6 -153.1,22.4 -193,165.3 -201.1,271.5 -5.1,66.2 2.2,118.1 2.2,118.1 0,0 75.4,0.3 87.6,11.6 25,23.1 36,134.4 42.7,257.7 l 104.6,59 145.8,-98.8 25.5,-17.2"
         style="fill:#6385db;fill-opacity:1;fill-rule:nonzero;stroke:none"
         id="path200" />
      <path
         d="m 14008.1,9951.9 c -149.2,43.7 -212.5,216.1 -212.5,216.1 63.1,-1.9 145.3,-45.7 209.8,-90.2 -0.5,-3.4 -1,-6.9 -1.4,-10.3 -3.9,-28.3 -0.5,-74.6 4.1,-115.6"
         style="fill:#ed975d;fill-opacity:1;fill-rule:nonzero;stroke:none"
         id="path202" />
      <path
         d="m 14018.7,10012.4 c 0,0 -269.6,66.7 -225.5,233.9 44,167.3 38.9,288.5 212.9,253 174,-35.4 190.5,-108 189.4,-167.4 -1.2,-59.5 -105.6,-332.5 -176.8,-319.5"
         style="fill:#ffb27d;fill-opacity:1;fill-rule:nonzero;stroke:none"
         id="path204" />
      <path
         d="m 14212.1,10426.9 c -80.3,127 -175.9,140.2 -176.4,140.2 -68.5,45.9 -159.1,-66.8 -159.1,-66.8 -49.7,-115.2 -154.4,-161.1 -154.4,-161.1 0,0 40.9,-43.1 161.4,-44 36.8,-0.3 74,16.1 108,38.9 -65.9,-64.5 -142.6,-103.1 -142.6,-103.1 144.5,25.4 245.7,184.7 263.6,214.7 19.5,-31.3 38.8,-67.6 39.8,-90.2 2.1,-46.1 -15.1,-135.3 11.3,-139.1 0,0 102.4,125 48.4,210.5"
         style="fill:#233862;fill-opacity:1;fill-rule:nonzero;stroke:none"
         id="path206" />
      <path
         d="m 13976.6,10119.7 c 0,0 3.4,-25.5 19.6,-31.5 16.2,-6 59.4,-17 63.7,-14.3 4.4,2.7 20.5,22.6 20.5,22.6 0,0 -67.9,26.1 -103.8,23.2"
         style="fill:#ffffff;fill-opacity:1;fill-rule:nonzero;stroke:none"
         id="path208" />
      <path
         d="m 13875.9,7561.3 c -3.4,-14.3 -6.8,-28.4 -10.2,-42.5 -20.3,-84.4 -39.2,-162.8 -51.1,-228.3 -15.5,-85.3 -19.2,-148.7 1.1,-175.4 83.8,-109.8 0,-980.9 0,-980.9 l -95.2,-98.1 c 0,0 -165.7,860 -210.6,994.8 -20.4,61.2 -50.2,322.9 -76.5,590 -1.3,13.4 -2.6,26.7 -3.9,40.1 -4.6,46.7 -8.9,93.3 -13.2,138.7 -23.5,252.7 -41.2,469.1 -41.2,469.1 0,0 175.7,123.6 335.4,137.3 94,8.2 182.4,-21.7 226.1,-137.3 63.7,-168.1 -0.8,-458.4 -60.7,-707.5"
         style="fill:#ffb27d;fill-opacity:1;fill-rule:nonzero;stroke:none"
         id="path210" />
      <path
         d="m 13849.1,7503.5 c -123,134.1 -203.9,326.1 -354,594.9 -12.8,136.7 95,266.7 215.4,307.7 94,8.2 182.4,-21.7 226.1,-137.3 63.7,-168.1 -27.6,-516.2 -87.5,-765.3"
         style="fill:#ed975d;fill-opacity:1;fill-rule:nonzero;stroke:none"
         id="path212" />
      <path
         d="m 14352,9222.5 641.6,-165.7 v -75 c 0,0 -638.5,7.5 -679.7,78.7 -41.1,71.1 38.1,162 38.1,162"
         style="fill:#ffb27d;fill-opacity:1;fill-rule:nonzero;stroke:none"
         id="path214" />
      <path
         d="m 14993.6,6753.3 -30,-123.8 c 0,0 -867.9,448.2 -980.1,534.3 -45.1,34.6 -104.7,222.4 -159.9,434.9 -82.2,316.7 -154.6,688.1 -154.6,688.1 0,0 121.6,467.9 447.3,181.5 194.9,-171.3 164.6,-501.6 143.3,-758.4 -14.2,-172.3 -24.5,-311.6 40.2,-347.7 126,-70.4 495.9,-394.5 613,-617.5 l 80.8,8.6"
         style="fill:#ffb27d;fill-opacity:1;fill-rule:nonzero;stroke:none"
         id="path216" />
      <path
         d="m 14598.5,8957.2 c -54.1,-57.1 -127.4,-90.9 -246.5,-73.4 -51.9,7.6 -143.5,65.7 -191.3,161.8 -7.1,14.3 -25.3,56.4 -25.3,56.4 0,0 -66.1,-66.1 -68.5,-78.6 l -0.1,-0.7 c -1.1,-6.2 -4.6,-35.9 -6.5,-52 -0.3,-2.6 -0.6,-4.8 -0.7,-6.5 l -0.4,-3.3 c -1.1,-8.2 4.9,-38.6 4.9,-38.6 0,0 -285.3,-124.7 -537.5,-2 l -1.5,0.7 c -12.7,6.2 -25.2,13 -37.7,20.5 0,0 -4.8,31.2 -10.8,83.8 -15.7,135.5 -39.6,412.8 -10.2,659.9 7.8,65.7 175.5,155.4 227.4,200.7 11.7,10.2 23.5,41 20.3,60.8 -2.7,16.7 16.6,44.9 32.7,39.8 31.2,-10 119.5,-53.7 181.6,-37 30.9,8.2 70.1,44 100.1,35.8 36.6,-10 -2.1,-98.2 18.7,-99.4 28.6,-1.3 157.2,-3.4 196.2,-57.3 32,-44.1 49,-126.2 104.6,-282 l 0.1,-0.4 c 104.5,-292 257.8,-237.2 318.7,-323.7 41.6,-59 18.7,-173.3 -68.3,-265.3"
         style="fill:#739af0;fill-opacity:1;fill-rule:nonzero;stroke:none"
         id="path218" />
      <path
         d="m 14135.4,9102 c 0,0 -31.8,74.2 -55,198.2 -6.5,35 -275.5,-233.8 -208.2,-343 67.4,-109.2 263.2,144.8 263.2,144.8"
         style="fill:#6385db;fill-opacity:1;fill-rule:nonzero;stroke:none"
         id="path220" />
      <path
         d="m 14523.1,7982.1 -0.3,-0.1 c -4.9,-1.4 -88.1,-25 -211.1,-50.9 -30.1,-6.4 -62.6,-12.9 -96.9,-19.2 -264.9,-49 -638.4,-89.5 -863.4,10.8 0,0 16.2,373.8 60.4,656.4 35.3,226.1 75.6,362.4 75.6,362.4 0,0 228.7,-47.2 468.6,-1.3 2.4,0.4 4.6,0.9 6.9,1.4 31.4,6.2 65.3,9 96.3,19.3 0,0 178.6,-254.3 272.1,-434.9 64.6,-125 191.8,-543.9 191.8,-543.9"
         style="fill:#2b478b;fill-opacity:1;fill-rule:nonzero;stroke:none"
         id="path222" />
      <path
         d="m 14523.1,7982.1 -0.3,-0.1 c -4.9,-1.4 -88.1,-25 -211.1,-50.9 -30.1,-6.4 -62.6,-12.9 -96.9,-19.2 -411.5,537.9 -257,1026.9 -257,1026.9 1.6,1 3.4,1.9 5.1,2.8 31.4,6.2 65.3,9 96.3,19.3 0,0 178.6,-254.3 272.1,-434.9 64.6,-125 191.8,-543.9 191.8,-543.9"
         style="fill:#233862;fill-opacity:1;fill-rule:nonzero;stroke:none"
         id="path224" />
      <path
         d="m 14993.6,9056.8 c 0,0 117.7,57.9 164.5,63.6 46.8,5.6 125.4,7.4 125.4,0 0,-7.5 -84.3,-59.9 -106.7,-63.6 -22.5,-3.8 -65.5,-35.6 -52.4,-39.4 13.1,-3.7 82.3,12.2 83.3,0 0.9,-12.2 -42.1,-19.6 -49.6,-29 -7.5,-9.4 -33.7,-20.6 -75.8,-15 -42.1,5.6 -88.7,8.4 -88.7,8.4 v 75"
         style="fill:#ffb27d;fill-opacity:1;fill-rule:nonzero;stroke:none"
         id="path226" />
      <path
         d="m 15165.1,6705.2 -0.8,0.2 c -3.9,1 -21.7,6.8 -33.5,35.2 -7.8,18.7 -10.2,34.1 -17.3,52.6 l -29.3,50.5 c -30.7,40.4 -41.4,31 -41.4,31 0,0 -8,-10.3 -19.9,-23.9 -19.5,-22.3 -49.5,-53.5 -70.7,-61.5 -15.1,-5.7 -24.6,-15 -30.3,-23.7 -7.4,-11 -9.1,-20.8 -9.1,-20.8 0,0 62.9,-11 57.5,-42 -10.7,-60 -8.2,-71 -7.1,-72.9 l 0.4,-0.4 c 0,0 107.3,-56.2 141.6,-67.2 61.1,-19.6 93,-61.1 112.8,-80.1 8,-7.6 19.1,-11.2 30,-9.4 16.1,2.5 37,7.7 41.6,17.6 l -124.5,214.8"
         style="fill:#2b478b;fill-opacity:1;fill-rule:nonzero;stroke:none"
         id="path228" />
      <path
         d="m 13911.5,5992.4 -51.4,-27.8 c -18.7,-6.6 -34.1,-8.5 -53,-15.8 -28.7,-11 -48.9,-32.6 -49.9,-36.5 -14.5,-59 -35.7,-57.2 -35.7,-57.2 h -205.9 c -9.8,4.9 6.7,46.6 14.7,54.4 19.5,19.2 77.9,9.5 99.2,70 12,34 71.3,139.7 71.3,139.7 l 0.4,0.3 c 2,1.1 13,3.3 72.7,-9.1 30.8,-6.4 43.6,56.2 43.6,56.2 0,0 9.8,-2 20.5,-9.7 8.6,-6 17.7,-15.7 22.9,-31 7.4,-21.4 37.7,-52.3 59.5,-72.5 13.2,-12.2 23.2,-20.5 23.2,-20.5 0,0 9.1,-11 -32.1,-40.5"
         style="fill:#2b478b;fill-opacity:1;fill-rule:nonzero;stroke:none"
         id="path230" />
      <path
         d="m 13109.4,9297.8 c 0,0 9.5,65.2 -7.3,108.2 -17.8,45.3 -21.7,94.6 -36,75 -14.2,-19.5 -2.2,-74.8 -14.6,-73 -5.5,0.8 -22.4,10.3 -29,36.9 -8.4,33.7 12,78 -16,73.6 -26.7,-4.1 -62.7,-128.5 -44.9,-162.3 17.8,-33.8 84,-113.7 84,-113.7 l 63.8,55.3"
         style="fill:#ffb27d;fill-opacity:1;fill-rule:nonzero;stroke:none"
         id="path232" />
      <path
         d="m 14066.9,9023.4 -0.1,-0.7 -6.5,-52 c -0.3,-2.6 -0.6,-4.8 -0.7,-6.5 l -0.4,-3.3 c -139.8,-51.9 -237.6,-77.1 -328.5,-77.1 -98.4,0 -164.3,19.1 -204.1,36.5 l -1.5,0.7 c -17.7,7.8 -30,15.3 -37.7,20.5 0,0 -4.8,31.2 -10.8,83.8 47.8,-24.7 268.6,-121.4 590.3,-1.9"
         style="fill:#233862;fill-opacity:1;fill-rule:nonzero;stroke:none"
         id="path234" />
      <path
         d="m 23880.3,5857.6 v 3759.1 h 2045.6 v -729.8 h -1171.7 v -690.8 h 1081.4 v -754.3 h -1081.4 v -820.2 h 1171.7 v -764 h -2045.6"
         style="fill:#f77d48;fill-opacity:1;fill-rule:nonzero;stroke:none"
         id="path236" />
      <path
         d="m 25731.8,9616.7 c 0,0 -32.6,44.1 -89.8,40.8 -57.1,-3.2 -88.1,-39.1 -63.6,-62 24.5,-22.9 78.3,-21.2 115.9,0 37.5,21.2 37.5,21.2 37.5,21.2"
         style="fill:#ffb27d;fill-opacity:1;fill-rule:nonzero;stroke:none"
         id="path238" />
      <path
         d="M 28741.6,5789.9 H 1477.47 c -16.66,0 -30.3,13.7 -30.3,30.3 v 8.8 c 0,16.7 13.64,30.3 30.3,30.3 H 28741.6 c 16.7,0 30.3,-13.6 30.3,-30.3 v -8.8 c 0,-16.6 -13.6,-30.3 -30.3,-30.3"
         style="fill:#2e3552;fill-opacity:1;fill-rule:nonzero;stroke:none"
         id="path240" />
    </g>
  </g>
</svg>
